<?xml version="1.0" encoding="UTF-8" standalone="no"?>
<!-- Created with Inkscape (http://www.inkscape.org/) -->

<svg
   width="622"
   height="287"
   viewBox="0 0 164.57083 75.935416"
   version="1.1"
   id="svg1"
   sodipodi:docname="lcd.svg"
   inkscape:version="1.4 (86a8ad7, 2024-10-11)"
   xmlns:inkscape="http://www.inkscape.org/namespaces/inkscape"
   xmlns:sodipodi="http://sodipodi.sourceforge.net/DTD/sodipodi-0.dtd"
   xmlns="http://www.w3.org/2000/svg"
   xmlns:svg="http://www.w3.org/2000/svg">
  <sodipodi:namedview
     id="namedview1"
     pagecolor="#ffffff"
     bordercolor="#000000"
     borderopacity="0.25"
     inkscape:showpageshadow="2"
     inkscape:pageopacity="0.0"
     inkscape:pagecheckerboard="0"
     inkscape:deskcolor="#d1d1d1"
     inkscape:document-units="mm"
     inkscape:zoom="1.6168981"
     inkscape:cx="357.78383"
     inkscape:cy="133.27989"
     inkscape:window-width="3840"
     inkscape:window-height="2054"
     inkscape:window-x="-11"
     inkscape:window-y="315"
     inkscape:window-maximized="1"
     inkscape:current-layer="layer1" />
  <defs
     id="defs1" />
  <g
     inkscape:label="Layer 1"
     inkscape:groupmode="layer"
     id="layer1"
     transform="translate(-24.087122,-80.404732)">
    <rect
       y="80.404732"
       x="24.087124"
       height="75.935417"
       width="164.57083"
       id="rect1349"
       style="fill:#cbd0c8;fill-opacity:1;stroke:none;stroke-width:0.271209;stroke-miterlimit:4;stroke-dasharray:none" />
    <path
       style="fill:#000000;stroke:none;stroke-width:0.310296"
       d="m 160.9845,92.125808 c -0.0253,-0.04214 -0.0534,-1.406111 -0.0624,-3.030959 -0.009,-1.624857 -0.0307,-2.979638 -0.0481,-3.010627 -0.0174,-0.031 -0.002,-0.07401 0.034,-0.09562 0.0361,-0.02159 1.21009,-0.04388 2.60894,-0.04946 1.39884,-0.0052 4.11374,-0.0168 6.0331,-0.02482 1.91937,-0.0079 4.09929,-0.0061 4.84426,0.0044 l 1.3545,0.0189 0.011,0.881935 c 0.013,1.045859 -0.0579,0.990716 1.24469,0.968477 l 0.85346,-0.01454 0.004,1.293245 c 0.003,0.711288 -0.006,1.298113 -0.0182,1.30406 -0.0125,0.0061 -0.46637,0.02734 -1.00855,0.04745 l -0.9858,0.03666 0.0177,0.743383 c 0.0145,0.609238 -0.007,0.763018 -0.1171,0.85213 -0.0991,0.07993 -0.5315,0.110688 -1.63082,0.116096 -0.8228,0.0044 -2.21659,0.01445 -3.09731,0.02308 -4.32922,0.04249 -9.99575,0.0069 -10.03783,-0.06374 z m 13.40181,-1.124967 0.26886,-0.03701 0.004,-1.90493 0.004,-1.904921 -1.92922,-0.02134 c -1.06107,-0.01167 -3.66586,-0.01585 -5.78842,-0.0092 -2.12257,0.0069 -4.01543,0.0035 -4.20636,-0.0069 -0.69004,-0.03719 -0.67811,-0.06791 -0.70315,1.813511 -0.0122,0.912707 -8.7e-4,1.741788 0.0242,1.842401 l 0.0463,0.182934 6.00484,0.0411 c 3.30266,0.02255 6.12582,0.02438 6.2737,0.0044 z m -2.37438,-0.588671 c -0.0927,-0.07383 -0.14053,-0.225651 -0.13759,-0.436588 0.006,-0.427906 -0.10483,-0.522007 -0.62326,-0.52926 -0.38808,-0.0052 -0.43836,-0.02656 -0.47981,-0.202054 -0.0255,-0.107797 -0.0326,-0.301867 -0.0161,-0.431285 0.0291,-0.227228 0.0485,-0.23644 0.56439,-0.268875 l 0.53416,-0.03361 0.0144,-0.410335 c 0.0221,-0.62963 0.0136,-0.61562 0.36653,-0.610683 0.3533,0.0052 0.51656,0.181679 0.4844,0.524428 -0.0498,0.529321 -0.0405,0.539579 0.50894,0.573459 l 0.51273,0.03161 0.0207,0.297985 c 0.0287,0.413208 -0.14704,0.562374 -0.65431,0.555278 l -0.40459,-0.0052 -0.007,0.389916 c -0.003,0.214454 -0.0348,0.432775 -0.0693,0.485166 -0.10056,0.153268 -0.45913,0.194384 -0.61471,0.07044 z m -8.71002,-0.990969 c -0.32717,-0.04946 -0.32773,-0.05016 -0.32257,-0.418929 l 0.005,-0.36941 1.43732,-0.03205 c 1.57755,-0.03517 1.64239,-0.01732 1.63585,0.450137 -0.002,0.121294 -0.0498,0.25793 -0.10687,0.303635 -0.11596,0.09282 -2.13879,0.143706 -2.64889,0.06661 z m 13.30683,-0.392606 c 0.002,-0.156158 -0.49423,-0.221421 -0.66101,-0.0869 -0.21561,0.173904 -0.12709,0.249467 0.26901,0.229605 0.28101,-0.01411 0.39076,-0.05407 0.392,-0.142714 z"
       id="path164"
       class="seg13 com1" />
    <path
       style="fill:#000000;stroke:none;stroke-width:0.310296"
       d="m 153.06427,92.43505 c -0.13032,-0.09811 -0.14218,-0.469572 -0.14166,-4.43551 l 1.7e-4,-2.052668 0.45218,-0.04171 c 0.54456,-0.05024 0.6467,-0.01924 0.69433,0.210466 0.0201,0.0969 0.0341,1.275404 0.0312,2.618873 -0.003,1.343478 0.0161,2.464753 0.0423,2.491729 0.0262,0.02699 0.68766,0.06391 1.46986,0.08202 l 1.42218,0.033 0.0172,0.508494 c 0.0143,0.420958 -0.008,0.521632 -0.13133,0.584813 -0.21908,0.112543 -3.7071,0.112935 -3.85654,3.04e-4 z"
       id="path162"
       class="seg12 com2" />
    <path
       style="fill:#000000;stroke:none;stroke-width:0.310296"
       d="m 148.19619,92.305667 c 0.002,-0.101576 0.002,-1.576026 1.1e-4,-3.276541 l -0.003,-3.091849 1.95476,-0.0044 c 1.6547,-0.0035 1.97025,0.01445 2.05567,0.118803 0.12869,0.157177 0.12192,0.849239 -0.009,0.977081 -0.0694,0.06748 -0.50305,0.09149 -1.42156,0.07862 -0.9185,-0.0128 -1.35213,0.01114 -1.42154,0.07862 -0.14709,0.143037 -0.1478,1.248716 -6.2e-4,1.374155 0.0841,0.07175 0.41909,0.0871 1.23081,0.05633 l 1.11535,-0.04224 -0.008,0.586581 c -0.004,0.322617 -0.0175,0.590952 -0.0288,0.596298 -0.0113,0.0052 -0.53816,0.02569 -1.17067,0.04519 l -1.15,0.03553 -0.0325,0.626723 c -0.0418,0.803446 0.0512,0.925715 0.66016,0.867889 0.54676,-0.0519 2.1741,-0.05686 2.22283,-0.0069 0.0207,0.02133 0.0601,0.255256 0.0875,0.519751 0.0739,0.714771 0.11041,0.703469 -2.16998,0.671592 l -1.91346,-0.02673 z"
       id="path161"
       class="seg12 com2" />
    <path
       style="fill:#000000;stroke:none;stroke-width:0.310296"
       d="m 143.45154,92.438585 c -0.15687,-0.102726 -0.15725,-6.500202 -3.1e-4,-6.508335 0.0615,-0.0035 0.68432,0.0087 1.38404,0.02551 1.02769,0.02525 1.33495,0.06061 1.59853,0.183578 0.94519,0.441099 1.35808,1.758716 0.8184,2.611698 -0.18661,0.294963 -0.2023,0.462475 -0.0668,0.713213 0.0537,0.0994 0.1428,0.310662 0.19797,0.469484 0.13385,0.385397 0.28253,2.045911 0.2082,2.325417 -0.0565,0.212617 -0.0813,0.221672 -0.5862,0.21462 -0.33291,-0.0044 -0.55023,-0.04554 -0.58972,-0.11088 -0.0344,-0.05695 -0.0598,-0.533371 -0.0565,-1.058765 0.008,-1.357819 -0.13002,-1.540047 -1.16664,-1.5345 l -0.53373,0.0026 -0.0405,1.266348 c -0.0244,0.763298 -0.0768,1.308902 -0.1319,1.37345 -0.10014,0.117279 -0.86614,0.136758 -1.03481,0.02629 z m 2.39346,-3.882836 c 0.3191,-0.153659 0.41843,-0.271034 0.44575,-0.526735 0.0463,-0.433374 -0.002,-0.578491 -0.24429,-0.730374 -0.28714,-0.180147 -1.18168,-0.249101 -1.3605,-0.104863 -0.14801,0.119386 -0.17628,1.226355 -0.035,1.371611 0.13717,0.141069 0.89378,0.134956 1.19407,-0.0096 z"
       id="path160"
       class="seg12 com2" />
    <path
       style="fill:#000000;stroke:none;stroke-width:0.310296"
       d="m 133.1497,92.423722 c -0.11431,-0.09184 -0.12841,-0.4937 -0.11666,-3.326966 l 0.0134,-3.222512 0.51202,0.0069 c 0.2816,0.0044 0.53589,0.04702 0.56508,0.09576 0.0291,0.04876 0.0427,0.593903 0.0302,1.2115 -0.0125,0.617596 -0.003,1.187834 0.0204,1.267193 0.0383,0.127223 0.16383,0.145979 1.06195,0.158535 l 1.01861,0.01428 0.0417,-1.374711 0.0417,-1.374711 0.43798,-0.0189 c 0.2409,-0.01045 0.48437,0.02064 0.54105,0.06905 0.0773,0.06601 0.10816,0.770289 0.12345,2.81842 0.0112,1.501734 0.0361,2.886851 0.0551,3.078039 0.0558,0.557411 -0.0596,0.678373 -0.63925,0.670268 -0.58812,-0.0079 -0.62944,-0.07166 -0.62041,-0.95291 0.003,-0.316059 0.006,-0.842533 0.006,-1.16993 l 2.5e-4,-0.595272 -0.89629,-0.01253 c -0.49296,-0.0069 -0.95572,0.0093 -1.02833,0.03605 -0.11633,0.04275 -0.12751,0.193574 -0.094,1.268403 0.0291,0.934119 0.0131,1.249038 -0.0684,1.344462 -0.13088,0.153294 -0.81872,0.15972 -1.00583,0.0094 z"
       id="path159"
       class="seg12 com1" />
    <path
       style="fill:#000000;stroke:none;stroke-width:0.310296"
       d="m 127.5257,92.405436 c -0.17022,-0.122817 -0.1752,-0.179955 -0.15583,-1.788007 0.0109,-0.91363 0.005,-2.358122 -0.012,-3.21 l -0.0319,-1.548849 1.18001,0.06635 c 1.57619,0.08859 2.05038,0.253142 2.73572,0.949349 0.5495,0.558203 0.73037,0.865529 0.9021,1.532688 0.30368,1.179876 -0.0928,2.457195 -1.00226,3.229217 -0.62883,0.53377 -0.90462,0.660097 -1.75095,0.801941 -0.84234,0.14119 -1.64335,0.127153 -1.86487,-0.03266 z m 2.26562,-1.329381 c 1.08967,-0.503739 1.59111,-1.767065 1.08915,-2.744007 -0.38478,-0.748913 -0.77817,-1.039164 -1.59882,-1.179631 -0.75279,-0.128861 -0.71719,-0.226575 -0.74911,2.056559 -0.0153,1.096407 -3.2e-4,2.02187 0.0329,2.056569 0.0966,0.100446 0.85099,-0.01611 1.22596,-0.18949 z"
       id="path158"
       class="seg12 com1" />
    <path
       style="fill:#000000;stroke:none;stroke-width:0.310296"
       d="m 109.87953,90.337182 c -0.57634,-0.124471 -0.92317,-0.653166 -0.90635,-1.381581 0.0129,-0.556576 0.17402,-0.830596 0.61666,-1.048569 0.32921,-0.162114 1.09894,-0.173014 1.35957,-0.01924 0.37835,0.223188 0.61067,0.624093 0.64859,1.119273 l 0.0365,0.475997 -0.40577,0.418363 c -0.34919,0.360024 -0.45734,0.422639 -0.77569,0.449047 -0.20344,0.01689 -0.46151,0.01089 -0.57348,-0.01332 z"
       id="path166"
       class="seg11 com1" />
    <path
       style="fill:#000000;stroke:none;stroke-width:0.310296"
       d="m 113.97904,90.678885 c -0.8717,-0.398675 -0.84552,-0.36072 -0.67571,-0.979648 0.1222,-0.445374 0.10806,-1.017962 -0.0376,-1.523147 -0.0405,-0.140432 -0.0519,-0.309642 -0.0254,-0.376002 0.0579,-0.14482 0.58513,-0.379528 0.98565,-0.43879 0.35106,-0.05198 0.38918,0.02516 0.51832,1.048725 0.0666,0.52751 0.0631,0.879471 -0.0139,1.433678 -0.13282,0.955712 -0.23631,1.070745 -0.75136,0.835184 z"
       id="path165"
       class="seg11 com1" />
    <path
       style="fill:#000000;stroke:none;stroke-width:0.310296"
       d="m 116.11531,91.492215 -0.51779,-0.216735 0.0418,-0.297208 c 0.023,-0.163464 0.12375,-0.577308 0.22395,-0.919656 0.21792,-0.744594 0.19581,-1.462578 -0.0773,-2.512661 -0.13476,-0.517993 -0.15362,-0.704 -0.0804,-0.793903 0.12229,-0.150351 1.08568,-0.481597 1.23131,-0.423361 0.0608,0.02429 0.1932,0.390864 0.29426,0.814583 0.1583,0.663667 0.17988,0.952317 0.15579,2.08371 -0.0209,0.979423 -0.068,1.458885 -0.18536,1.885869 -0.18809,0.684147 -0.28065,0.716486 -1.08608,0.379362 z"
       id="path163"
       class="seg11 com1" />
    <path
       style="fill:#000000;stroke:none;stroke-width:0.310296"
       d="m 118.73273,92.541367 c -0.7143,-0.320275 -0.72999,-0.355235 -0.49455,-1.102301 0.48302,-1.532664 0.47205,-3.887869 -0.0232,-4.992155 -0.0407,-0.09089 -0.0808,-0.273604 -0.0887,-0.406034 -0.0153,-0.253071 0.0285,-0.288484 0.70024,-0.56537 0.52624,-0.216909 0.68835,-0.169123 0.78518,0.231442 0.0465,0.192573 0.17448,0.702398 0.28426,1.132942 0.18003,0.705969 0.19806,0.936427 0.18365,2.347718 -0.0162,1.587858 -0.12623,2.341787 -0.42611,2.920191 -0.0628,0.121068 -0.11513,0.291889 -0.11636,0.379598 -0.002,0.140329 -0.1576,0.263337 -0.31812,0.251443 -0.0302,-0.0018 -0.24893,-0.0911 -0.48617,-0.197474 z"
       id="path157"
       class="seg11 com1" />
    <path
       style="fill:#000000;stroke:none;stroke-width:0.310296"
       d="m 98.743865,92.733173 c -0.20511,-0.06417 -0.223144,-0.206243 -0.189097,-1.490319 0.03587,-1.350096 -0.0069,-1.469701 -0.437172,-1.228968 -0.145944,0.08159 -0.451391,0.240341 -0.678757,0.352701 -0.22735,0.112369 -0.469423,0.2485 -0.537916,0.30252 -0.06844,0.05398 -0.385023,0.231033 -0.703407,0.393374 -0.318385,0.162331 -0.634767,0.328633 -0.703078,0.369557 -0.840069,0.503261 -2.083647,1.13748 -2.292833,1.169322 l -0.265436,0.0404 -0.0018,-1.42679 -0.0018,-1.426808 -0.946439,0.01367 c -1.199014,0.01732 -1.24862,-0.02055 -1.20005,-0.916495 l 0.03282,-0.604683 0.862727,0.03796 c 0.481919,0.02116 0.965021,6.27e-4 1.094509,-0.0465 l 0.23179,-0.08446 -0.03857,-1.437179 c -0.02795,-1.041158 -0.01332,-1.436838 0.05329,-1.435906 0.05059,6.18e-4 0.285254,0.109939 0.521502,0.242744 0.236248,0.132805 0.796142,0.447881 1.244197,0.700178 0.759657,0.427749 1.522405,0.833217 3.025621,1.608408 0.338211,0.174417 0.653358,0.2941 0.700316,0.265967 0.05512,-0.033 0.08159,-0.534859 0.07454,-1.415915 l -0.01089,-1.364768 0.697775,0.0097 0.697782,0.0097 0.0018,1.456343 0.0018,1.456334 0.213461,0.05677 c 0.11739,0.03117 0.57437,0.03814 1.0155,0.01542 0.68695,-0.03535 0.80893,-0.02255 0.84999,0.08907 0.0858,0.232966 0.0372,1.147928 -0.0662,1.248446 -0.0652,0.06339 -0.40412,0.09287 -0.97642,0.0849 -0.676,-0.0095 -0.9001,0.01532 -0.97964,0.108529 -0.07793,0.09124 -0.09081,0.377386 -0.05268,1.169295 0.05817,1.210908 0.0478,1.49968 -0.0572,1.601853 -0.08672,0.08438 -0.969732,0.140945 -1.178901,0.07558 z"
       id="path153"
       class="seg10 com1" />
    <path
       style="fill:#000000;stroke:none;stroke-width:0.310296"
       d="m 81.783356,92.214771 c -0.383456,-0.212983 -0.648751,-0.484775 -0.849169,-0.869998 -0.1581,-0.303887 -0.172284,-0.474325 -0.174043,-2.092259 -8.71e-4,-1.235734 0.03039,-1.870702 0.106142,-2.127595 0.125796,-0.426244 0.594653,-0.922372 1.041071,-1.101605 0.811858,-0.325961 1.924939,0.0209 2.338558,0.728712 0.310539,0.531402 0.436482,1.086236 0.308205,1.357662 -0.095,0.201001 -0.129774,0.211311 -0.612328,0.181506 l -0.511602,-0.03161 -0.04624,-0.313866 c -0.08717,-0.591858 -0.485585,-0.921616 -1.003028,-0.830179 -0.442927,0.07828 -0.497331,0.29322 -0.496504,1.961997 3.05e-4,0.832051 0.03074,1.595113 0.0674,1.6957 0.139153,0.381985 0.550098,0.527128 0.960667,0.339283 0.337812,-0.154555 0.356471,-0.183168 0.43145,-0.661907 l 0.06035,-0.385033 0.548878,-0.01654 c 0.710286,-0.02134 0.78692,0.08673 0.584744,0.824318 -0.171822,0.626852 -0.453837,0.993695 -0.994774,1.293994 -0.352831,0.195881 -0.503853,0.230118 -0.952761,0.216021 -0.342147,-0.01071 -0.631546,-0.07122 -0.806965,-0.168653 z"
       id="path156"
       class="seg1 com1" />
    <path
       style="fill:#000000;stroke:none;stroke-width:0.310296"
       d="m 76.371374,92.336473 c -0.06827,-0.02961 -0.09927,-0.240741 -0.09371,-0.63879 0.0079,-0.536478 0.02961,-0.613678 0.226618,-0.790542 0.120066,-0.107797 0.47814,-0.524898 0.795715,-0.926883 0.317575,-0.401993 0.748582,-0.931723 0.957802,-1.177167 0.482171,-0.565683 0.699612,-0.897452 0.702442,-1.071799 0.0044,-0.247734 -0.394985,-0.648151 -0.649397,-0.651713 -0.422019,-0.0061 -0.64903,0.134791 -0.844624,0.523462 l -0.187417,0.372414 -0.453594,-0.03038 -0.453601,-0.03039 -0.02021,-0.343941 c -0.04388,-0.747415 0.566119,-1.450144 1.426956,-1.643979 0.597091,-0.134442 1.247793,0.05538 1.702291,0.496547 0.405503,0.393643 0.670329,1.13498 0.59171,1.656404 -0.07306,0.484444 -0.231007,0.726387 -1.143948,1.752272 -0.491453,0.552256 -0.99979,1.233573 -1.001304,1.342058 -8.71e-4,0.07767 0.24762,0.09981 1.029846,0.09184 1.175435,-0.01201 1.182592,-0.0079 1.175775,0.624031 -0.0035,0.337089 -0.03153,0.401924 -0.199234,0.463015 -0.204875,0.07462 -3.386097,0.05999 -3.562142,-0.01637 z"
       id="path155"
       class="seg1 com1" />
    <path
       style="fill:#000000;stroke:none;stroke-width:0.310296"
       d="m 73.190318,92.293555 c -0.768843,-0.207845 -1.311835,-0.859914 -1.350129,-1.62133 l -0.01803,-0.3581 0.514632,-0.01724 0.514641,-0.01732 0.147338,0.357464 c 0.237667,0.576585 0.792109,0.74084 1.168633,0.346222 0.275423,-0.288649 0.339049,-0.554137 0.209892,-0.875805 -0.08037,-0.200182 -0.185493,-0.284478 -0.462632,-0.370952 -0.573005,-0.178814 -0.601523,-0.207548 -0.623012,-0.627688 -0.02385,-0.467421 0.08722,-0.620321 0.447176,-0.615289 0.331011,0.0044 0.700412,-0.376079 0.705315,-0.7269 0.0035,-0.252741 -0.479063,-0.768887 -0.667351,-0.713743 -0.05669,0.01663 -0.207706,0.05164 -0.335538,0.07793 -0.17528,0.03596 -0.273543,0.137255 -0.399609,0.411808 l -0.167172,0.36408 -0.529757,-0.0079 c -0.526447,-0.0069 -0.52973,-0.009 -0.526509,-0.239052 0.0061,-0.403735 0.258923,-0.96799 0.57049,-1.270972 0.472149,-0.459122 1.222289,-0.590212 2.023838,-0.353659 0.438634,0.129445 0.699402,0.391345 0.990699,0.994949 0.281639,0.583602 0.270337,1.106167 -0.0357,1.650169 l -0.221454,0.393669 0.21838,0.462623 c 0.444669,0.94199 0.31849,1.607076 -0.443762,2.339096 -0.437981,0.42061 -0.449631,0.425756 -1.00497,0.443614 -0.309025,0.01 -0.635473,-0.0018 -0.725455,-0.02612 z"
       id="path154"
       class="seg1 com1" />
    <path
       style="fill:#000000;stroke:none;stroke-width:0.310296"
       d="m 67.372766,92.255051 c -0.146885,-0.216065 -0.166633,-0.694588 -0.04171,-1.00989 0.04493,-0.113448 0.317993,-0.482676 0.606747,-0.820504 0.288745,-0.33782 0.724384,-0.859679 0.968077,-1.159683 0.243693,-0.300005 0.549043,-0.654821 0.678557,-0.788488 0.280229,-0.289224 0.423578,-0.542382 0.42653,-0.753293 0.0026,-0.198049 -0.380103,-0.573432 -0.659505,-0.646609 -0.232704,-0.06095 -0.729164,0.13452 -0.731306,0.287935 -6.18e-4,0.04833 -0.07915,0.194062 -0.17433,0.323889 -0.145658,0.198607 -0.229736,0.235247 -0.53021,0.23105 -0.196404,-0.0026 -0.415228,-0.02821 -0.486263,-0.05659 -0.349044,-0.139571 0.09977,-1.281448 0.65806,-1.674211 0.392677,-0.276259 1.056134,-0.365492 1.655202,-0.222596 0.946865,0.225844 1.543617,1.176175 1.376679,2.192343 -0.0579,0.352274 -0.423256,0.842108 -1.846833,2.475854 -0.207324,0.237921 -0.354913,0.469355 -0.328008,0.514294 0.029,0.04841 0.466645,0.07967 1.07429,0.0768 0.810256,-0.0035 1.040444,0.01968 1.097251,0.112273 0.104097,0.169655 0.07933,0.959361 -0.03213,1.026138 -0.05207,0.03117 -0.878653,0.06312 -1.836899,0.07106 l -1.742276,0.01437 z"
       id="path152"
       class="seg1 com1" />
    <path
       style="fill:#000000;stroke:none;stroke-width:0.310296"
       d="m 64.036205,92.234876 c -0.766345,-0.39568 -1.094622,-0.815603 -1.176236,-1.504591 l -0.04963,-0.418973 0.543062,0.0079 c 0.539047,0.0079 0.543889,0.0097 0.654768,0.285793 0.282188,0.702834 1.188147,0.744768 1.435306,0.06644 0.193878,-0.532116 -0.164622,-0.921161 -0.938908,-1.01891 -0.288614,-0.0364 -0.563767,-0.144734 -0.8404,-0.330776 -0.670982,-0.451268 -0.870877,-0.958952 -0.754738,-1.916841 0.05338,-0.44041 0.111298,-0.577542 0.365901,-0.866706 0.166355,-0.188932 0.453237,-0.409482 0.637519,-0.490094 0.382228,-0.167209 1.113622,-0.186521 1.532411,-0.04049 0.574025,0.200209 1.202688,1.033156 1.19931,1.589026 -0.0018,0.248613 -0.04397,0.274518 -0.539517,0.329017 -0.390256,0.04293 -0.465566,0.0035 -0.629396,-0.327598 -0.214349,-0.433523 -0.41838,-0.567033 -0.797108,-0.521615 -0.482963,0.0579 -0.655813,0.240533 -0.661533,0.69888 -0.0044,0.334024 0.02551,0.39791 0.259044,0.557925 0.145065,0.09939 0.429631,0.208916 0.632356,0.243397 0.870276,0.148008 1.315936,0.484131 1.645328,1.240958 0.352387,0.809646 -0.118674,1.955676 -0.979432,2.382859 -0.3975,0.197266 -1.188661,0.215099 -1.538105,0.03466 z"
       id="path151"
       class="seg1 com1" />
    <path
       style="fill:#000000;stroke:none;stroke-width:0.310296"
       d="m 58.573956,92.387307 -0.24567,-0.0465 0.02421,-3.264543 0.02421,-3.26455 0.924339,0.02159 c 1.134292,0.02656 1.574973,0.120588 2.064074,0.440436 0.493369,0.322643 0.769375,0.901666 0.760824,1.596123 -0.0069,0.540544 -0.176846,0.887263 -0.655064,1.334552 -0.214219,0.200366 -0.269276,0.306744 -0.232034,0.448344 0.07149,0.271817 0.272689,0.811222 0.402821,1.079905 0.06235,0.128721 0.112873,0.268379 0.112282,0.310365 -6.19e-4,0.04197 0.06661,0.233907 0.149374,0.426496 0.232922,0.542183 0.251957,0.639113 0.158623,0.807818 -0.119291,0.215578 -0.897583,0.215151 -1.085114,-6.17e-4 -0.06957,-0.08002 -0.27315,-0.609369 -0.45247,-1.176358 -0.378466,-1.196629 -0.489137,-1.402662 -0.755486,-1.40638 -0.223292,-0.0035 -0.299176,0.179798 -0.264896,0.638537 0.106631,1.426625 0.106996,1.877598 0.0018,1.960022 -0.138265,0.108119 -0.608237,0.155905 -0.931533,0.0947 z m 1.964767,-3.913851 c 0.364238,-0.215151 0.582105,-0.655431 0.460933,-0.931523 -0.145744,-0.332108 -0.473785,-0.501737 -0.943479,-0.487875 -0.228716,0.0069 -0.447237,0.04275 -0.485601,0.08011 -0.10832,0.105333 -0.103224,1.236194 0.0061,1.371838 0.138003,0.171092 0.646357,0.153894 0.961973,-0.03256 z"
       id="path150"
       class="seg1 com1" />
    <path
       style="fill:#000000;stroke:none;stroke-width:0.310296"
       d="m 50.363652,92.35846 c -0.719193,-0.131595 -1.272758,-0.62054 -1.462453,-1.291747 -0.165106,-0.584188 -0.121537,-3.464926 0.06125,-4.05034 0.248153,-0.794739 1.200683,-1.284024 2.055438,-1.055813 0.140427,0.03753 0.355916,0.09217 0.478863,0.121503 0.320911,0.07654 0.792418,0.532639 0.951645,0.920492 0.173881,0.423543 0.260621,3.535611 0.11302,4.054754 -0.130206,0.457946 -0.897493,1.195495 -1.314328,1.263379 -0.169878,0.02769 -0.364443,0.06095 -0.43236,0.07401 -0.06791,0.01306 -0.270906,-0.0035 -0.451083,-0.03622 z m 0.765508,-1.29288 c 0.330546,-0.268552 0.367226,-0.44432 0.386936,-1.85427 0.01653,-1.182183 -0.0012,-1.404473 -0.134222,-1.674288 -0.266596,-0.541129 -0.741522,-0.655648 -1.171365,-0.282468 l -0.271437,0.235657 -0.04082,1.446295 c -0.0369,1.307072 -0.0255,1.477379 0.118371,1.769417 0.08756,0.177717 0.22358,0.361834 0.302261,0.409141 0.219978,0.132256 0.616394,0.10805 0.810284,-0.04946 z"
       id="path149"
       class="seg1 com2" />
    <path
       style="fill:#000000;stroke:none;stroke-width:0.310296"
       d="m 45.525514,92.379122 c -0.02379,-0.0397 -0.03059,-1.201147 -0.0151,-2.580918 0.02256,-2.009644 0.0062,-2.527419 -0.08227,-2.602964 -0.06074,-0.0519 -0.373343,-0.10852 -0.694658,-0.125908 -0.321317,-0.01742 -0.620932,-0.0694 -0.665811,-0.115522 -0.04488,-0.04615 -0.0673,-0.301553 -0.04986,-0.567546 l 0.03174,-0.483642 1.559936,0.0069 c 0.857964,0.0044 1.75195,-0.0114 1.986639,-0.03396 0.234686,-0.02255 0.447052,-0.0069 0.471919,0.03448 0.08541,0.142627 0.109659,0.87125 0.03299,0.991465 -0.05349,0.08385 -0.265114,0.127163 -0.698916,0.142992 -0.47554,0.01733 -0.63727,0.05425 -0.686152,0.156419 -0.07113,0.148723 -0.07162,0.214925 -0.02231,3.030576 0.02678,1.529206 0.01111,2.021469 -0.06733,2.113314 -0.113048,0.132405 -1.025013,0.160678 -1.100798,0.03413 z"
       id="path148"
       class="seg1 com2" />
    <path
       style="fill:#000000;stroke:none;stroke-width:0.310296"
       d="m 40.721168,92.254085 c -0.470529,-0.211973 -0.78572,-0.509696 -0.981217,-0.926831 -0.17994,-0.383943 -0.185928,-0.478949 -0.184142,-2.921611 l 0.0019,-2.524764 0.53349,0.0079 c 0.370221,0.0052 0.545948,0.04127 0.574175,0.118063 0.02237,0.06086 0.03138,1.096093 0.02002,2.300567 -0.02494,2.647172 0.02352,2.836366 0.731198,2.852135 0.242804,0.0052 0.371797,-0.04911 0.568171,-0.240036 l 0.254054,-0.247054 0.0025,-2.397314 0.0025,-2.397323 0.533194,0.03614 c 0.293257,0.01985 0.54289,0.04545 0.554736,0.05695 0.01185,0.0115 0.03623,1.033488 0.05418,2.271119 0.03416,2.355676 -0.0083,2.780969 -0.324707,3.2562 -0.522756,0.785075 -1.543561,1.115049 -2.339784,0.75634 z"
       id="path147"
       class="seg1 com2" />
    <path
       style="fill:#000000;stroke:none;stroke-width:0.310296"
       d="m 34.906248,92.412141 c -0.153643,-0.06452 -0.115005,-0.824737 0.07045,-1.386092 0.08827,-0.267204 0.222628,-0.743584 0.298562,-1.058634 0.413694,-1.716415 0.679981,-2.848443 0.79758,-3.390634 0.07257,-0.334563 0.179116,-0.637327 0.236787,-0.672819 0.167091,-0.102809 0.937715,-0.06652 1.030106,0.04859 0.04584,0.05712 0.10858,0.25194 0.139404,0.43301 0.057,0.334824 0.331026,1.495665 0.73897,3.130397 0.40056,1.605186 0.500419,1.975789 0.557287,2.068297 0.03069,0.0499 0.07774,0.24162 0.104593,0.426051 0.048,0.329643 0.04383,0.336644 -0.245036,0.412077 -0.293726,0.07672 -0.839269,-0.0018 -0.952397,-0.136419 -0.0317,-0.03779 -0.09424,-0.290965 -0.138953,-0.562548 -0.146994,-0.892672 -0.185944,-0.947005 -0.682861,-0.952517 -0.238164,-0.0026 -0.478939,0.02351 -0.535059,0.05799 -0.05612,0.03456 -0.145525,0.356027 -0.198684,0.714396 -0.1145,0.771856 -0.256597,0.940205 -0.779015,0.922929 -0.186835,-0.0061 -0.385619,-0.03048 -0.441738,-0.05407 z m 2.125879,-2.91428 c 0.05558,-0.139005 -0.109488,-0.615864 -0.213683,-0.617318 -0.09696,-8.71e-4 -0.138009,0.08333 -0.207832,0.428778 -0.05884,0.291174 -0.05114,0.30656 0.155011,0.309442 0.119315,0.0018 0.239244,-0.05277 0.266504,-0.120902 z"
       id="path146"
       class="seg1 com2" />
    <path
       style="fill:#000000;stroke:none;stroke-width:0.310296"
       d="m 141.11918,103.78994 c -0.14584,-0.15707 -0.62843,-0.73031 -1.07242,-1.27386 -0.44399,-0.54357 -0.97087,-1.17784 -1.17085,-1.40951 -0.19997,-0.23166 -0.52704,-0.62267 -0.72682,-0.8689 -0.19976,-0.246254 -0.5177,-0.629832 -0.70651,-0.852419 -0.41636,-0.490843 -0.43218,-0.671938 -0.0708,-0.810603 0.14757,-0.0566 0.48725,-0.203448 0.75487,-0.326274 0.7243,-0.332466 1.15593,-0.372276 4.11985,-0.380016 1.4903,-0.0044 3.264,-0.01716 3.94155,-0.02943 3.42174,-0.06225 5.21347,0.05982 5.8405,0.397848 0.14343,0.07732 0.332,0.1416 0.41901,0.142819 0.0871,8.71e-4 0.20341,0.05833 0.25867,0.126771 0.0553,0.06853 0.13623,0.125063 0.17992,0.125672 0.13436,0.0018 0.71151,0.455527 0.71193,0.559581 1.7e-4,0.0539 -0.27123,0.365343 -0.6032,0.692078 -1.27353,1.253433 -3.1393,3.145963 -3.56475,3.615883 -0.25899,0.28607 -0.53225,0.50671 -0.65512,0.52898 -0.11595,0.0211 -1.82629,0.0402 -3.80075,0.0426 l -3.58993,0.004 z"
       id="path144"
       class="seg8 com1" />
    <path
       style="fill:#000000;stroke:none;stroke-width:0.310296"
       d="m 114.90082,104.03212 c -0.35878,-0.0384 -0.66872,-0.28446 -0.97256,-0.77203 -0.0993,-0.15944 -0.52201,-0.68232 -0.93921,-1.16196 -0.4172,-0.47962 -0.78439,-0.90966 -0.81598,-0.95564 -0.0316,-0.046 -0.424,-0.50562 -0.87204,-1.02145 -0.78019,-0.898241 -0.9956,-1.224203 -0.90599,-1.370983 0.0973,-0.159449 1.47903,-0.696398 1.97918,-0.769139 0.30063,-0.04371 0.56816,-0.09182 0.59454,-0.106788 0.0264,-0.01506 1.91385,-0.02847 4.1944,-0.02995 2.28054,-8.71e-4 4.55295,-0.0079 5.0498,-0.01542 1.19851,-0.01689 2.43614,0.11889 3.00476,0.329687 0.77727,0.288171 1.61879,0.779092 1.61649,0.943044 -8.7e-4,0.08072 -0.18076,0.320927 -0.39917,0.5337 -0.21841,0.212757 -0.68537,0.696879 -1.03767,1.075799 -0.35232,0.37893 -1.23245,1.28075 -1.95585,2.00405 l -1.31526,1.3151 -2.66859,0.007 c -1.46772,0.004 -3.01965,0.0124 -3.44876,0.0186 -0.42909,0.006 -0.92773,-0.004 -1.10809,-0.0239 z"
       id="path143"
       class="seg6 com1" />
    <path
       style="fill:#000000;stroke:none;stroke-width:0.310296"
       d="m 34.840163,99.374438 c -0.113099,-0.128539 -0.132159,-0.290339 -0.104324,-0.885593 l 0.03404,-0.728329 1.395625,0.01393 c 1.950872,0.01942 8.76835,0.0095 10.829756,-0.01542 1.372183,-0.01672 1.729448,8.7e-4 1.783328,0.08871 0.117952,0.191911 0.06514,1.438816 -0.06634,1.566683 -0.09732,0.09463 -0.98867,0.111837 -5.194673,0.10028 -2.792462,-0.0079 -5.856113,-0.0069 -6.808124,0.0018 -1.621903,0.01454 -1.739633,0.0052 -1.869301,-0.141765 z"
       id="path145"
       class="seg1 com3" />
    <path
       style="fill:#000000;stroke:none;stroke-width:0.310296"
       d="m 45.593011,103.23954 c -0.07217,-0.0331 -0.09849,-0.29654 -0.09004,-0.90134 l 0.01194,-0.85457 1.621018,0.0427 1.621019,0.0427 0.01297,0.77284 c 0.0072,0.42506 -0.01657,0.79944 -0.05268,0.83196 -0.07912,0.0712 -2.979073,0.1323 -3.124241,0.0657 z"
       id="path142"
       class="seg1 com3" />
    <path
       style="fill:#000000;stroke:none;stroke-width:0.310296"
       d="m 40.253121,103.23273 c -0.07658,-0.0537 -0.09517,-0.29899 -0.06932,-0.91477 l 0.03532,-0.84133 1.529733,0.0176 c 0.841351,0.01 1.570598,0.0436 1.620556,0.0755 0.131813,0.084 0.101026,1.57883 -0.03422,1.66161 -0.1459,0.0893 -2.955012,0.0906 -3.082056,0.002 z"
       id="path141"
       class="seg1 com3" />
    <path
       style="fill:#000000;stroke:none;stroke-width:0.310296"
       d="m 34.790115,103.16623 c -0.02967,-0.0305 -0.04888,-0.4189 -0.04267,-0.86306 l 0.01129,-0.80757 1.292918,0.019 c 0.711107,0.0105 1.432467,0.002 1.603021,-0.0192 0.275827,-0.0341 0.318651,-0.0148 0.387569,0.17436 0.08511,0.23366 0.09219,1.26168 0.01006,1.46699 -0.04462,0.11158 -0.266467,0.12616 -1.629952,0.1071 -0.868072,-0.0121 -1.602596,-0.047 -1.632275,-0.0776 z"
       id="path140"
       class="seg1 com3" />
    <path
       style="fill:#000000;stroke:none;stroke-width:0.310296"
       d="m 87.948638,103.9461 c -0.122749,-0.0342 -0.295833,-0.15181 -0.384622,-0.2613 -0.803708,-0.99115 -2.04585,-2.47551 -2.583643,-3.08749 -1.152344,-1.311313 -1.42404,-1.69476 -1.32616,-1.871668 0.04728,-0.08542 0.186817,-0.177952 0.310096,-0.205572 0.123271,-0.02761 0.275144,-0.08948 0.337515,-0.137386 0.137237,-0.105497 0.608428,-0.279715 1.001452,-0.370271 0.797231,-0.183691 1.942764,-0.217206 6.776601,-0.198223 5.723619,0.02246 5.363829,-0.0044 6.725846,0.496119 0.577141,0.211946 1.210857,0.64384 1.247927,0.850493 0.0158,0.08796 -0.103518,0.263024 -0.300156,0.440601 -0.179485,0.16208 -0.564011,0.550007 -0.854524,0.862067 -0.290504,0.31204 -1.105593,1.15046 -1.811308,1.86314 -0.705716,0.71268 -1.376479,1.39608 -1.490607,1.51867 l -0.207496,0.2229 -2.355005,-0.0285 c -1.295266,-0.0157 -2.91926,-0.0292 -3.608884,-0.0299 -0.689616,-8.7e-4 -1.354284,-0.0294 -1.477032,-0.0637 z"
       id="path139"
       class="seg4 com1" />
    <path
       style="fill:#000000;stroke:none;stroke-width:0.310296"
       d="m 61.295559,103.91938 c -0.415351,-0.0582 -0.463032,-0.0966 -0.983298,-0.79159 -0.132987,-0.17767 -0.569009,-0.70387 -0.968931,-1.16934 -0.399929,-0.46548 -0.908805,-1.06568 -1.130852,-1.33378 -0.222046,-0.2681 -0.551577,-0.656224 -0.732273,-0.862476 -0.180703,-0.20626 -0.408001,-0.466227 -0.505097,-0.577708 -0.354773,-0.40734 -0.211267,-0.568661 0.877233,-0.986189 1.001627,-0.384212 1.371507,-0.406434 7.173918,-0.431119 3.746601,-0.01593 5.380417,0.01819 5.827898,0.121555 0.938916,0.216978 1.186753,0.304993 1.737338,0.616961 0.913691,0.517706 0.905601,0.451172 0.153694,1.264145 -0.360007,0.389251 -1.18287,1.231761 -1.828583,1.872241 -0.645704,0.64049 -1.420529,1.41641 -1.721832,1.72427 l -0.547824,0.55975 -3.434109,0.0105 c -1.888752,0.006 -3.452666,0.0169 -3.475357,0.0246 -0.02273,0.008 -0.221559,-0.011 -0.441925,-0.0419 z"
       id="path138"
       class="seg2 com1" />
    <path
       style="fill:#000000;stroke:none;stroke-width:0.310296"
       d="m 171.89458,107.62561 c -0.22539,-0.0472 -0.28043,-0.25346 -0.23857,-0.89353 l 0.0319,-0.48878 0.41075,-0.0158 c 0.82355,-0.0315 0.80121,-0.0104 0.778,-0.74837 -0.0199,-0.63601 -0.0279,-0.65832 -0.35653,-1.00709 -0.32098,-0.3406 -0.5507,-0.76976 -0.7389,-1.38037 -0.0476,-0.15417 -0.0786,-0.84102 -0.0689,-1.52634 0.0153,-1.09659 0.0415,-1.31185 0.218,-1.794886 0.38915,-1.064773 1.28164,-1.779152 2.37418,-1.900342 1.58441,-0.175714 2.8517,0.549915 3.38141,1.936154 0.21224,0.555464 0.23544,0.720564 0.24958,1.776614 0.0122,0.91679 -0.0149,1.26401 -0.12801,1.63362 -0.15451,0.50504 -0.64444,1.31506 -0.83858,1.38647 -0.16395,0.0603 -0.29113,0.49436 -0.26056,0.88937 0.014,0.18083 0.0263,0.41671 0.0275,0.52416 0.002,0.19188 0.0122,0.19453 0.56616,0.14775 l 0.56405,-0.0476 0.0471,0.31242 c 0.0808,0.5349 0.0457,1.06621 -0.0767,1.16498 -0.0782,0.063 -0.50523,0.08 -1.33497,0.0531 l -1.21995,-0.0398 0.003,-1.81396 0.003,-1.81396 0.37229,-0.2281 c 0.24622,-0.15087 0.43727,-0.35415 0.56416,-0.60027 0.17208,-0.33381 0.19292,-0.48638 0.2022,-1.48048 0.009,-0.96324 -0.0117,-1.15246 -0.15912,-1.44575 -0.18052,-0.359462 -0.64998,-0.78244 -0.87184,-0.78554 -0.0737,-8.71e-4 -0.20269,-0.03996 -0.28664,-0.08638 -0.25173,-0.139292 -0.97883,0.04893 -1.36476,0.353301 -0.49147,0.387579 -0.65139,0.941139 -0.62942,2.178699 0.0154,0.86154 0.0355,0.97171 0.23499,1.28254 0.12004,0.18703 0.38014,0.45479 0.578,0.59504 0.4293,0.30429 0.42858,0.30028 0.42157,2.36972 -0.004,1.28259 -0.0182,1.4183 -0.15278,1.48458 -0.14922,0.0736 -1.96065,0.0806 -2.30227,0.009 z"
       id="path137"
       class="seg12 com3" />
    <path
       style="fill:#000000;stroke:none;stroke-width:0.310296"
       d="m 164.97315,107.59132 c -0.13767,-0.12233 -0.14414,-0.42536 -0.10682,-4.99452 l 0.0397,-4.864295 0.67632,0.0091 c 0.77171,0.01079 0.75312,-0.0052 0.91595,0.792816 0.12086,0.592371 0.49852,2.144429 0.66156,2.718789 0.0644,0.2267 0.14723,0.57885 0.18418,0.7826 0.1779,0.98113 0.4705,2.05924 0.55922,2.06049 0.10495,8.7e-4 0.22424,-0.19662 0.2697,-0.44782 0.0245,-0.13514 0.1067,-0.48499 0.18277,-0.77747 0.0761,-0.29247 0.20208,-0.82645 0.28002,-1.18663 0.078,-0.36019 0.19673,-0.8421 0.26393,-1.07093 0.0672,-0.22883 0.12507,-0.50512 0.12857,-0.613997 0.003,-0.108886 0.0621,-0.344977 0.13014,-0.524671 0.0681,-0.179677 0.16557,-0.566276 0.21666,-0.859096 0.15322,-0.878078 0.0876,-0.819842 0.91186,-0.808314 0.6572,0.0091 0.73261,0.02629 0.77787,0.176141 0.0276,0.09131 0.0294,0.876458 0.004,1.744836 -0.0253,0.868381 -0.0345,2.955741 -0.0203,4.638601 0.02,2.3909 0.003,3.08614 -0.0775,3.18056 -0.0742,0.0868 -0.27193,0.11848 -0.70328,0.11245 -0.50775,-0.007 -0.60707,-0.0313 -0.64534,-0.15814 -0.0249,-0.0824 -0.0292,-0.7752 -0.0104,-1.53963 0.0196,-0.76445 0.007,-1.47959 -0.028,-1.58922 l -0.0634,-0.1993 -0.1039,0.23803 c -0.11512,0.2637 -0.35056,1.21559 -0.47631,1.92583 -0.21091,1.19112 -0.33845,1.38125 -0.92103,1.37312 -0.64223,-0.009 -0.8943,-0.13993 -0.94828,-0.49258 -0.0254,-0.16574 -0.0764,-0.41262 -0.11345,-0.54861 -0.0371,-0.13599 -0.10727,-0.47568 -0.15608,-0.75488 -0.12619,-0.72156 -0.3408,-1.37164 -0.46739,-1.41581 -0.0886,-0.031 -0.10191,0.23783 -0.0731,1.48086 0.0293,1.26122 0.0154,1.53475 -0.0825,1.61366 -0.18931,0.15271 -1.03359,0.15108 -1.20622,-0.002 z"
       id="path136"
       class="seg11 com2" />
    <path
       style="fill:#000000;stroke:none;stroke-width:0.310296"
       d="m 158.55133,107.67695 c -0.14451,-0.0194 -0.22561,-0.0798 -0.22604,-0.16852 -0.002,-0.44732 0.006,-7.26 0.0106,-8.389859 l 0.005,-1.354694 0.69021,0.02979 c 0.37963,0.01637 0.70468,0.04458 0.72233,0.06278 0.0176,0.01819 0.023,1.191535 0.0119,2.607493 l -0.0202,2.57449 0.17936,0.002 c 0.11303,0.002 0.49301,-0.2815 1.02779,-0.76566 0.46667,-0.42248 0.8903,-0.79216 0.94142,-0.82151 0.0511,-0.0294 0.55342,-0.0593 1.11625,-0.0665 1.26043,-0.0163 1.32276,0.0562 0.54998,0.63951 -0.28704,0.21662 -0.76488,0.59709 -1.06189,0.84548 -0.297,0.24839 -0.67996,0.5513 -0.85101,0.67314 -0.17104,0.12184 -0.31189,0.28585 -0.31298,0.36445 -8.7e-4,0.0786 0.1658,0.30998 0.37089,0.51418 0.20509,0.20418 0.63776,0.7075 0.96149,1.11846 0.32373,0.41096 0.81059,0.98716 1.08195,1.28044 0.27132,0.2933 0.4927,0.57822 0.49194,0.63317 -0.003,0.23618 -0.24691,0.29675 -1.03469,0.25725 -0.73407,-0.0368 -0.8013,-0.0547 -0.96363,-0.25655 -0.096,-0.11933 -0.46496,-0.58359 -0.81997,-1.03166 -0.98315,-1.2409 -1.17639,-1.45019 -1.34111,-1.45249 -0.28261,-0.004 -0.33569,0.26307 -0.29275,1.473 0.0336,0.94599 0.0205,1.15293 -0.0745,1.18208 -0.17218,0.0529 -0.90501,0.084 -1.16232,0.0493 z"
       id="path135"
       class="seg10 com2" />
    <path
       style="fill:#000000;stroke:none;stroke-width:0.310296"
       d="m 44.667667,115.10292 c -0.546975,-0.11181 -0.957109,-0.31641 -1.503689,-0.75014 -0.269444,-0.21381 -0.589793,-0.46403 -0.711889,-0.55606 -0.122092,-0.0921 -0.902255,-0.74539 -1.733699,-1.45193 -0.83144,-0.70655 -1.697484,-1.37746 -1.924545,-1.49095 -0.445431,-0.2226 -0.695942,-0.21951 -1.309821,0.0163 -0.339977,0.13055 -0.813437,0.69843 -0.817376,0.98039 -0.0047,0.33522 -0.186625,0.67208 -0.366473,0.67851 -0.49108,0.0176 -1.415767,-0.0499 -1.474143,-0.10761 -0.132965,-0.13132 0.106544,-1.21036 0.391938,-1.76577 0.341384,-0.66436 0.827084,-1.10403 1.567325,-1.41883 0.481532,-0.20477 0.628426,-0.22726 1.4247,-0.21818 1.45243,0.0166 1.309652,-0.0756 5.539664,3.57485 1.14588,0.9889 1.861702,1.07342 2.700176,0.31883 0.368476,-0.33161 0.511265,-0.57181 0.595255,-1.00135 l 0.06004,-0.30706 0.85824,0.012 0.858231,0.012 -0.0029,0.20993 c -0.0052,0.37443 -0.184303,0.96674 -0.446043,1.47538 -0.699726,1.35973 -2.218802,2.09357 -3.704957,1.78978 z"
       id="path133"
       class="seg1 com4" />
    <path
       style="fill:#000000;stroke:none;stroke-width:0.310296"
       d="m 174.12676,120.71457 c -0.0297,-0.0305 -0.0501,-0.33389 -0.0453,-0.67414 l 0.008,-0.61864 1.04886,-1.03081 c 0.57687,-0.56694 1.0251,-1.07045 0.99608,-1.11893 -0.0324,-0.0542 -0.42603,-0.0933 -1.02424,-0.1017 -1.10429,-0.0155 -1.07143,0.007 -1.06128,-0.71947 l 0.006,-0.44477 0.3489,0.004 c 0.19188,0.003 1.0436,0.002 1.89268,-8.7e-4 1.78166,-0.007 1.74684,-0.023 1.6702,0.76707 l -0.0432,0.44529 -1.05398,1.02719 c -0.57967,0.56495 -1.05489,1.0931 -1.05602,1.17367 -0.002,0.13575 0.0727,0.1434 1.01586,0.1042 1.16719,-0.0485 1.20001,-0.0301 1.19022,0.66976 -0.008,0.62527 -0.0142,0.62687 -2.05321,0.59836 -0.98257,-0.0138 -1.81075,-0.05 -1.84043,-0.0804 z"
       id="path131"
       class="seg13 com2" />
    <path
       style="fill:#000000;stroke:none;stroke-width:0.310296"
       d="m 168.21344,120.62504 c -0.0216,-0.0793 -0.0425,-1.67764 -0.0464,-3.55179 -0.003,-1.87414 -0.008,-3.68467 -0.0107,-4.02339 l -0.003,-0.61585 0.57465,0.008 0.57463,0.008 -0.002,1.72184 c -8.7e-4,0.94702 0.0318,1.75636 0.0728,1.79855 0.041,0.0422 0.6217,0.0776 1.29037,0.0787 1.41055,0.002 1.43611,-0.0104 1.38642,-0.67729 -0.0172,-0.23129 -0.0328,-0.99323 -0.0345,-1.69322 l -0.003,-1.2727 0.55196,-0.0166 c 0.51865,-0.0155 0.55413,-0.005 0.58787,0.17243 0.0198,0.10391 0.0295,1.9715 0.0216,4.15018 -0.0135,3.7359 -0.0226,3.96556 -0.1613,4.03729 -0.14734,0.0762 -0.76911,0.0411 -0.91467,-0.0518 -0.0449,-0.0286 -0.0679,-0.73577 -0.0547,-1.68055 0.0179,-1.28189 -8.7e-4,-1.65584 -0.0896,-1.74664 -0.0885,-0.091 -0.36236,-0.11227 -1.2904,-0.10014 -0.69407,0.009 -1.22364,0.052 -1.289,0.10484 -0.0769,0.062 -0.0986,0.20498 -0.0706,0.46529 0.0222,0.2067 0.0422,0.9406 0.0444,1.63091 0.004,1.43377 0.0159,1.41038 -0.66981,1.40283 -0.33542,-0.003 -0.43377,-0.0352 -0.46475,-0.14892 z"
       id="path130"
       class="seg13 com2" />
    <path
       style="fill:#000000;stroke:none;stroke-width:0.310296"
       d="m 160.43002,115.00394 -0.35499,-0.32398 0.009,-0.6593 c 0.008,-0.58917 0.0313,-0.6827 0.21757,-0.87908 0.66698,-0.7036 1.91797,-0.52619 2.24212,0.31797 0.2474,0.64428 0.14604,1.12335 -0.33711,1.59318 -0.28503,0.27716 -0.3256,0.29051 -0.86047,0.28303 -0.53574,-0.008 -0.57754,-0.0226 -0.91634,-0.33182 z m 1.36657,-0.65347 c 0.26314,-0.30401 0.26504,-0.33583 0.0363,-0.60932 -0.20218,-0.24177 -0.62172,-0.31041 -0.83684,-0.1369 -0.20166,0.16267 -0.17375,0.70303 0.0445,0.86046 0.27508,0.19844 0.51702,0.16189 0.75605,-0.11424 z"
       id="path134"
       class="seg11 com3" />
    <path
       style="fill:#000000;stroke:none;stroke-width:0.310296"
       d="m 163.85332,120.34705 c -0.13548,-0.0613 -0.36376,-0.24907 -0.50735,-0.41729 -0.23755,-0.27832 -0.26036,-0.35436 -0.2535,-0.84527 0.007,-0.47335 0.0377,-0.57645 0.25363,-0.84139 0.55925,-0.68618 1.60992,-0.63085 2.13257,0.1123 0.50316,0.71543 0.22082,1.67929 -0.58717,2.00458 -0.34342,0.13826 -0.71425,0.13363 -1.03818,-0.013 z m 0.95589,-0.95511 c 0.21906,-0.22861 0.21801,-0.42612 -0.003,-0.63822 -0.36847,-0.35303 -0.9679,-0.13581 -0.97474,0.35324 -0.004,0.32 0.14692,0.4468 0.54465,0.45613 0.16781,0.003 0.32527,-0.0583 0.43345,-0.17115 z"
       id="path132"
       class="seg11 com3" />
    <path
       style="fill:#000000;stroke:none;stroke-width:0.310296"
       d="m 160.50352,120.73646 c -0.17629,-0.106 -0.17763,-0.29129 -0.004,-0.60929 0.0732,-0.13445 0.32342,-0.64823 0.55598,-1.14171 0.23255,-0.4935 0.53612,-1.13585 0.67459,-1.42745 0.13847,-0.2916 0.30273,-0.6403 0.36505,-0.77492 0.0623,-0.1346 0.25036,-0.52872 0.4179,-0.8758 0.16757,-0.3471 0.305,-0.65649 0.30544,-0.68753 3e-4,-0.031 0.1379,-0.33438 0.3055,-0.6741 0.3859,-0.78224 0.41565,-0.84881 0.62459,-1.39813 0.26523,-0.69727 0.29813,-0.72206 0.9744,-0.73421 0.32601,-0.006 0.61347,0.0108 0.63882,0.0367 0.0753,0.0774 -0.20524,0.70972 -1.32503,2.98682 -0.22658,0.46077 -0.41219,0.85316 -0.41245,0.87195 -2.6e-4,0.0188 -0.17112,0.38417 -0.37968,0.81192 -0.20857,0.42776 -0.53402,1.13668 -0.72322,1.57539 -0.70181,1.62728 -0.9248,2.04161 -1.12628,2.09267 -0.2724,0.0691 -0.73446,0.0419 -0.8912,-0.0524 z"
       id="path129"
       class="seg11 com3" />
    <path
       style="fill:#000000;stroke:none;stroke-width:0.310296"
       d="m 151.4546,120.49587 c -0.26811,-0.2032 -0.61543,-0.46712 -0.77182,-0.58653 -0.15639,-0.1194 -0.59545,-0.42787 -0.9757,-0.68553 -0.38025,-0.25764 -0.7926,-0.56854 -0.91634,-0.69091 l -0.22499,-0.22246 0.10336,-1.51365 c 0.0569,-0.83252 0.18983,-2.43615 0.29555,-3.56365 0.10575,-1.12749 0.21648,-2.32676 0.24609,-2.66503 0.0297,-0.33829 0.0764,-0.87337 0.10408,-1.18907 0.0276,-0.31572 0.091,-0.99838 0.14087,-1.51702 0.0499,-0.51864 0.11189,-1.16439 0.13787,-1.43496 0.026,-0.2706 0.0761,-0.87955 0.11127,-1.35321 0.0352,-0.47368 0.10823,-0.97962 0.16227,-1.12429 0.0586,-0.15687 0.79088,-0.95864 1.81411,-1.98626 0.94371,-0.94777 1.85702,-1.87827 2.02956,-2.067797 0.17254,-0.189506 0.35654,-0.343966 0.4089,-0.343226 0.13215,0.0018 0.89847,1.073803 1.20673,1.688063 0.30712,0.61196 0.51461,1.48463 0.56122,2.36048 0.0367,0.68962 -0.13221,3.40879 -0.27515,4.42936 -0.0474,0.33803 -0.10945,0.98375 -0.138,1.43494 -0.0285,0.4512 -0.0951,1.30007 -0.14789,1.88639 -0.0529,0.58634 -0.14761,1.6565 -0.2107,2.37816 -0.063,0.72167 -0.12537,1.36739 -0.13837,1.43494 -0.013,0.0676 -0.0561,0.58424 -0.0956,1.14817 -0.0914,1.30269 -0.25804,2.00487 -0.66989,2.82333 -0.4121,0.81898 -0.46177,0.89731 -0.86589,1.36551 l -0.33064,0.38306 -0.5367,-0.0104 c -0.50401,-0.009 -0.56639,-0.0322 -1.02419,-0.37911 z"
       id="path128"
       class="seg9 com1" />
    <path
       style="fill:#000000;stroke:none;stroke-width:0.310296"
       d="m 134.23546,120.78782 c -0.15723,-0.0996 -0.51002,-0.72388 -0.67906,-1.20154 -0.28219,-0.7974 -0.35264,-1.44926 -0.29294,-2.71064 0.0872,-1.84042 0.25598,-4.02966 0.36086,-4.67804 0.0509,-0.31539 0.099,-0.94284 0.10659,-1.39432 0.007,-0.45149 0.075,-1.28187 0.14986,-1.84532 0.0748,-0.56344 0.14059,-1.32524 0.14612,-1.6929 0.005,-0.36766 0.0704,-1.17963 0.14406,-1.80435 0.0737,-0.62472 0.16343,-1.55275 0.1994,-2.06228 0.0533,-0.75549 0.11863,-1.07082 0.35381,-1.70891 0.15861,-0.43036 0.33859,-0.84188 0.39997,-0.91448 0.0613,-0.0726 0.16695,-0.24204 0.23462,-0.37654 0.16972,-0.3373 1.01667,-1.176407 1.18502,-1.174056 0.0758,8.71e-4 0.19978,0.104392 0.27561,0.22964 0.0759,0.125263 0.33989,0.458034 0.58682,0.739536 0.24694,0.28149 0.64613,0.75797 0.88709,1.05885 0.24095,0.30087 0.61362,0.7343 0.82813,0.96317 0.21453,0.22889 0.38962,0.44538 0.38913,0.4811 -3.1e-4,0.0358 0.1832,0.26667 0.40825,0.51318 0.22505,0.24652 0.44496,0.51742 0.48873,0.60201 0.053,0.10221 0.0469,0.47584 -0.0181,1.11417 -0.0536,0.5282 -0.12031,1.32953 -0.1482,1.78074 -0.0279,0.45119 -0.0966,1.30004 -0.15268,1.88632 -0.22319,2.33303 -0.30282,3.25681 -0.39778,4.61534 -0.0921,1.3161 -0.15507,1.98914 -0.24384,2.60111 -0.0196,0.13521 -0.067,0.70725 -0.10507,1.27119 -0.0383,0.56395 -0.11425,1.11069 -0.16903,1.21497 -0.0547,0.10427 -0.23148,0.26808 -0.3927,0.364 -0.47966,0.28539 -1.09455,0.73127 -2.7607,2.00191 -0.20616,0.15721 -0.35793,0.1892 -0.94703,0.19964 -0.38583,0.007 -0.76254,-0.0262 -0.83711,-0.0735 z"
       id="path127"
       class="seg8 com2" />
    <path
       style="fill:#000000;stroke:none;stroke-width:0.310296"
       d="m 124.72942,120.44817 c -0.36542,-0.25348 -0.69636,-0.46132 -0.73542,-0.46186 -0.0391,-6.3e-4 -0.0998,-0.0509 -0.13514,-0.11191 -0.0352,-0.0611 -0.28372,-0.2587 -0.55215,-0.43936 -0.26843,-0.18064 -0.698,-0.49739 -0.95461,-0.70388 l -0.46655,-0.37543 0.0135,-0.94403 c 0.007,-0.51923 0.0531,-1.25754 0.10149,-1.64072 0.0483,-0.38318 0.15643,-1.52706 0.2401,-2.54196 0.0837,-1.01491 0.19432,-2.28808 0.24588,-2.82926 0.11034,-1.15806 0.37029,-4.30795 0.45681,-5.53505 0.0334,-0.47327 0.0933,-0.91581 0.13323,-0.98342 0.0399,-0.0677 0.72992,-0.77663 1.53335,-1.57558 0.80341,-0.79895 1.46081,-1.45699 1.46089,-1.46233 8.7e-4,-0.0962 1.23109,-1.255498 1.33024,-1.254114 0.17976,0.0018 0.8117,0.814714 1.13028,1.452684 0.74957,1.5011 0.82532,2.62706 0.44219,6.57475 -0.15697,1.61759 -0.30552,3.3291 -0.44484,5.12547 -0.0542,0.69921 -0.13941,1.54782 -0.18931,1.88582 -0.0499,0.33801 -0.13214,1.13124 -0.18279,1.76275 -0.10554,1.31626 -0.15964,1.58702 -0.4754,2.37994 -0.25083,0.62988 -0.59405,1.18025 -1.10256,1.7681 -0.31607,0.36538 -0.34945,0.38194 -0.75776,0.37623 -0.38168,-0.005 -0.49777,-0.0549 -1.09152,-0.46684 z"
       id="path126"
       class="seg7 com1"
       sodipodi:nodetypes="ccssscccssccsccsssssssccc" />
    <path
       style="fill:#000000;stroke:none;stroke-width:0.310296"
       d="m 107.45968,120.81506 c -0.2025,-0.1217 -0.73588,-1.31467 -0.93856,-2.0992 -0.18949,-0.73354 -0.18236,-1.043 0.0832,-3.61171 0.22182,-2.14555 0.36973,-3.78045 0.41546,-4.5922 0.0228,-0.4061 0.10533,-1.42103 0.18326,-2.25538 0.0779,-0.83435 0.23101,-2.52165 0.3402,-3.74957 0.15657,-1.76065 0.2352,-2.32362 0.37199,-2.66329 0.19665,-0.48831 0.50727,-1.11058 0.76422,-1.53089 0.18544,-0.30337 0.98637,-1.135718 1.09144,-1.134246 0.08,8.71e-4 0.65079,0.636726 0.94498,1.052306 0.12414,0.17536 0.44051,0.56416 0.70305,0.86403 0.26256,0.29985 0.69544,0.80339 0.962,1.11895 0.26654,0.31556 0.67986,0.78885 0.91849,1.05174 l 0.43389,0.47797 -0.0745,1.33635 c -0.0411,0.73499 -0.11615,1.64983 -0.16703,2.03296 -0.0508,0.38314 -0.1123,1.02888 -0.1365,1.43496 -0.0584,0.97931 -0.23827,3.00354 -0.28845,3.24583 -0.022,0.10599 -0.0884,0.90444 -0.14765,1.77435 -0.0592,0.86991 -0.14629,1.84903 -0.19339,2.17582 -0.0471,0.3268 -0.0905,0.86016 -0.0964,1.18526 -0.0154,0.84543 -0.15151,1.36112 -0.41958,1.59022 -0.12301,0.10511 -0.61538,0.45986 -1.09413,0.78831 -0.47876,0.32844 -0.98271,0.6955 -1.11986,0.81568 -0.13715,0.12016 -0.42954,0.34981 -0.64975,0.51029 -0.38499,0.28059 -0.42617,0.29136 -1.07131,0.27994 -0.369,-0.006 -0.73576,-0.0508 -0.81499,-0.0984 z"
       id="path125"
       class="seg6 com2" />
    <path
       style="fill:#000000;stroke:none;stroke-width:0.310296"
       d="m 98.399332,120.74182 c -0.14045,-0.0635 -0.279577,-0.15584 -0.309164,-0.20524 -0.02961,-0.0495 -0.478009,-0.38263 -0.996455,-0.74049 -1.605535,-1.10818 -1.695421,-1.1737 -1.81647,-1.32397 -0.146746,-0.18218 -0.108834,-1.55648 0.09954,-3.60706 0.179094,-1.7625 0.409316,-4.4891 0.540118,-6.39679 0.05564,-0.81209 0.141774,-1.77056 0.191344,-2.12997 0.04954,-0.35938 0.09609,-0.93142 0.103484,-1.2712 0.0249,-1.15066 -0.0202,-1.07533 1.596009,-2.66731 0.803229,-0.79118 1.753151,-1.75773 2.110954,-2.14788 0.357798,-0.390129 0.679818,-0.708924 0.715598,-0.708428 0.1356,0.0018 0.95576,1.144128 1.19106,1.658798 0.64909,1.41967 0.76797,2.64584 0.49126,5.06693 -0.0831,0.72714 -0.15429,1.54982 -0.15818,1.82819 -0.004,0.27836 -0.0886,1.23312 -0.1881,2.12168 -0.0995,0.88856 -0.20769,2.0401 -0.24027,2.55897 -0.0326,0.51888 -0.10045,1.29384 -0.15078,1.72214 -0.0504,0.42831 -0.0961,1.03257 -0.10165,1.34281 -0.0132,0.74493 -0.2498,2.24235 -0.40268,2.55023 -0.0669,0.13454 -0.20726,0.44664 -0.3121,0.69354 -0.10484,0.24691 -0.25887,0.53608 -0.34231,0.64262 -0.0834,0.10653 -0.15216,0.22802 -0.15273,0.27 -6.2e-4,0.042 -0.16062,0.25643 -0.35562,0.47656 -0.345961,0.39054 -0.365501,0.40001 -0.806007,0.39076 -0.248299,-0.005 -0.56638,-0.0615 -0.706846,-0.12489 z"
       id="path124"
       class="seg5 com1" />
    <path
       style="fill:#000000;stroke:none;stroke-width:0.310296"
       d="m 80.35128,120.21776 c -0.512098,-0.97562 -0.626121,-1.53406 -0.609455,-2.98491 0.0135,-1.16553 0.123244,-2.76338 0.207366,-3.01631 0.01906,-0.0572 0.06182,-0.53689 0.09506,-1.06606 0.03326,-0.52918 0.119525,-1.51553 0.191666,-2.19191 0.07219,-0.67637 0.160633,-1.72816 0.196629,-2.3373 0.03605,-0.60913 0.07923,-1.18122 0.0961,-1.27131 0.05756,-0.30788 0.144359,-1.31098 0.197944,-2.28832 0.1362,-2.4843 0.356863,-3.38739 1.140831,-4.66891 0.282476,-0.461761 1.016865,-1.261603 1.156557,-1.259653 0.08738,8.71e-4 0.565083,0.560842 1.41419,1.656673 0.386468,0.49877 1.691199,2.01633 1.973396,2.29531 0.473315,0.46791 0.536052,0.6477 0.52266,1.4979 -0.0069,0.44203 -0.05451,1.15404 -0.105663,1.58226 -0.0512,0.42819 -0.137768,1.36915 -0.192495,2.09103 -0.124637,1.64433 -0.183455,2.30054 -0.238912,2.6653 -0.02395,0.15772 -0.09183,0.93269 -0.150778,1.72215 -0.05895,0.78944 -0.146588,1.76734 -0.194757,2.1731 -0.04816,0.40576 -0.09366,1.03324 -0.101089,1.39441 -0.0079,0.36117 -0.06809,0.98516 -0.134763,1.38663 -0.132317,0.79664 -0.08956,0.73701 -0.969427,1.35192 -0.516687,0.36109 -0.641211,0.45072 -1.756225,1.26398 l -0.802515,0.58531 -0.821637,-0.0115 -0.821636,-0.0115 z"
       id="path123"
       class="seg4 com2" />
    <path
       style="fill:#000000;stroke:none;stroke-width:0.310296"
       d="m 71.340629,120.47356 c -0.235578,-0.1737 -0.757576,-0.5501 -1.160005,-0.83643 -1.51396,-1.07721 -1.749181,-1.26755 -1.79237,-1.4504 -0.02429,-0.10274 -0.01916,-0.49658 0.01132,-0.87508 0.03056,-0.37849 0.08028,-1.03883 0.110584,-1.46743 0.0303,-0.42858 0.09725,-1.18508 0.148896,-1.68111 0.05164,-0.49603 0.140981,-1.5478 0.198537,-2.33728 0.05756,-0.78946 0.118046,-1.52759 0.134407,-1.64025 0.01637,-0.11267 0.08115,-0.83225 0.144081,-1.59908 0.06287,-0.76683 0.155922,-1.83702 0.206773,-2.37821 0.05085,-0.5412 0.118822,-1.30181 0.151038,-1.69023 l 0.05861,-0.70623 1.429402,-1.39309 c 0.786172,-0.7662 1.704111,-1.70073 2.039876,-2.07673 0.860759,-0.963916 0.83132,-0.957855 1.375783,-0.28357 0.502111,0.62182 1.159404,2.01276 1.155485,2.44518 -0.0018,0.14347 0.04214,0.46469 0.09652,0.71382 0.06844,0.31369 0.07654,0.66727 0.0263,1.14987 -0.03988,0.38329 -0.11593,1.32441 -0.168915,2.09136 -0.05294,0.76698 -0.116365,1.44962 -0.140859,1.51703 -0.02447,0.0673 -0.07254,0.52857 -0.106726,1.02484 -0.03422,0.49627 -0.0875,1.27144 -0.118438,1.72259 -0.04859,0.70883 -0.125543,1.55957 -0.278087,3.07513 -0.02037,0.20293 -0.06791,0.88579 -0.105542,1.5175 -0.152823,2.56594 -0.527685,3.77851 -1.54171,4.98698 -0.452331,0.53906 -0.437345,0.53128 -0.976576,0.50744 -0.400644,-0.0177 -0.533474,-0.0676 -0.898462,-0.33662 z"
       id="path122"
       class="seg3 com1" />
    <path
       style="fill:#000000;stroke:none;stroke-width:0.310296"
       d="m 53.903584,120.73382 c -0.205616,-0.0864 -0.803071,-1.31696 -0.934271,-1.92432 -0.127957,-0.59236 -0.09295,-1.97141 0.105755,-4.16634 0.09187,-1.0148 0.211442,-2.47258 0.265712,-3.23952 0.05428,-0.76694 0.160104,-1.91086 0.23517,-2.54204 0.07508,-0.63117 0.164773,-1.64599 0.19934,-2.25515 0.03458,-0.60917 0.08128,-1.21815 0.103785,-1.35333 0.02253,-0.13515 0.08559,-0.83629 0.140192,-1.55806 0.09906,-1.30974 0.129155,-1.43899 0.60632,-2.60405 0.05183,-0.12654 0.188237,-0.34981 0.303124,-0.49615 0.114887,-0.14633 0.209521,-0.3115 0.210298,-0.36703 0.0021,-0.15627 0.925682,-1.061124 1.080777,-1.058965 0.07577,8.7e-4 0.259733,0.179145 0.408803,0.395732 0.14907,0.216588 0.291149,0.412548 0.31573,0.435473 0.02456,0.023 0.190108,0.21222 0.367834,0.42064 0.881813,1.03418 1.29375,1.51352 1.911686,2.22451 1.013155,1.16575 0.990604,1.11231 0.868962,2.06004 -0.05633,0.43864 -0.147599,1.42501 -0.202891,2.19195 -0.05529,0.76693 -0.122469,1.54189 -0.149279,1.72216 -0.02682,0.18025 -0.09608,0.91824 -0.153947,1.63998 -0.05782,0.72174 -0.11957,1.44135 -0.137149,1.59917 -0.01759,0.15782 -0.07941,0.91438 -0.137455,1.68128 -0.05799,0.76688 -0.126988,1.52335 -0.153268,1.68105 -0.0263,0.15769 -0.0894,0.84035 -0.140266,1.51702 -0.102758,1.36675 -0.169716,1.61725 -0.473847,1.77253 -0.114597,0.0585 -0.643674,0.43283 -1.175739,0.83184 -1.970077,1.47735 -1.949424,1.46601 -2.666594,1.46391 -0.347069,-8.7e-4 -0.706521,-0.0335 -0.798782,-0.0724 z"
       id="path121"
       class="seg2 com2" />
    <path
       style="fill:#000000;stroke:none;stroke-width:0.310296"
       d="m 138.87535,124.63914 c -0.15611,-0.14005 -0.31539,-0.25657 -0.35401,-0.25895 -0.0386,-0.002 -0.48177,-0.32412 -0.98481,-0.715 -0.50305,-0.39089 -0.93577,-0.71099 -0.96161,-0.71136 -0.12408,-0.002 -1.35641,-1.03105 -1.355,-1.13177 8.7e-4,-0.0633 0.26604,-0.28786 0.58922,-0.49881 0.32318,-0.21094 0.67099,-0.43778 0.77292,-0.5041 0.39256,-0.2554 0.9024,-0.61634 1.30792,-0.92595 0.23234,-0.17739 0.53563,-0.38855 0.67396,-0.46922 0.13834,-0.0807 0.41109,-0.27377 0.60611,-0.42908 0.23483,-0.187 0.4601,-0.29041 0.66698,-0.30617 0.17182,-0.0132 2.10597,-0.005 4.29809,0.0186 l 3.9857,0.0423 0.32169,0.18929 c 0.17692,0.10411 0.4129,0.27227 0.52436,0.37372 0.11148,0.10149 0.33557,0.27393 0.49799,0.38332 0.16241,0.10938 0.56059,0.38733 0.88485,0.61766 0.32426,0.23032 0.68549,0.47579 0.80275,0.54548 0.56546,0.33609 0.81114,0.51691 0.85153,0.62673 0.0432,0.11737 -0.28547,0.38014 -1.69057,1.35174 -0.29641,0.20494 -0.66955,0.4669 -0.82921,0.58214 -1.10542,0.79777 -1.80672,1.27847 -2.0225,1.38625 -0.21444,0.10712 -0.8321,0.1225 -4.27659,0.10645 l -4.02595,-0.0188 z"
       id="path120"
       class="seg9 com2" />
    <path
       style="fill:#000000;stroke:none;stroke-width:0.310296"
       d="m 112.80357,124.83838 c -0.42334,-0.0483 -0.62666,-0.16721 -1.87315,-1.09539 -0.31285,-0.23295 -0.78837,-0.57757 -1.05669,-0.7658 -0.89487,-0.62777 -1.34067,-1.00883 -1.33803,-1.14378 8.7e-4,-0.0748 0.28461,-0.3168 0.64402,-0.55021 0.84759,-0.55044 1.38246,-0.91969 2.38284,-1.64498 0.45621,-0.33075 0.94517,-0.67985 1.08656,-0.77579 0.2529,-0.17159 0.32613,-0.1744 4.49928,-0.1718 l 4.24221,0.003 0.30293,0.24655 c 0.25867,0.21049 1.22299,0.88801 1.65189,1.16058 0.96159,0.61105 1.94474,1.34874 1.94321,1.45802 -8.7e-4,0.0742 -0.12291,0.20295 -0.27084,0.28623 -0.14794,0.0834 -0.4184,0.26879 -0.60105,0.41222 -0.18264,0.14342 -0.55584,0.41039 -0.82937,0.59324 -0.78247,0.52316 -1.04257,0.70356 -1.5753,1.09256 -0.27374,0.19989 -0.69955,0.49855 -0.94624,0.66367 l -0.44852,0.30022 -3.70194,-0.0106 c -2.03606,-0.006 -3.88637,-0.0317 -4.11181,-0.0574 z"
       id="path119"
       class="seg7 com2" />
    <path
       style="fill:#000000;stroke:none;stroke-width:0.310296"
       d="m 85.704217,124.79104 c -0.09236,-0.0389 -0.549749,-0.35795 -1.016421,-0.70919 -0.46668,-0.35126 -1.14118,-0.84646 -1.498905,-1.10044 -1.021087,-0.72497 -1.367606,-0.99656 -1.399493,-1.09687 -0.04145,-0.13025 0.24466,-0.37614 1.033209,-0.88816 0.373747,-0.24267 0.72353,-0.49274 0.777315,-0.55574 0.05382,-0.0629 0.141766,-0.11392 0.195517,-0.11317 0.05372,6.1e-4 0.20545,-0.10797 0.337114,-0.2416 0.131665,-0.13364 0.283364,-0.24237 0.337115,-0.24161 0.05372,6.2e-4 0.143706,-0.0525 0.199921,-0.11833 0.05616,-0.0658 0.418842,-0.32195 0.805868,-0.56914 l 0.703669,-0.44947 3.214727,0.009 c 1.768092,0.005 3.641772,-8.7e-4 4.163718,-0.0149 l 0.94899,-0.0246 0.536835,0.3635 c 0.295268,0.19993 0.659227,0.45303 0.808803,0.56244 0.149566,0.10941 0.33135,0.23663 0.403961,0.28269 0.174339,0.11059 1.574572,1.07044 1.962267,1.34511 0.167687,0.11881 0.304228,0.26291 0.303427,0.32025 -0.0018,0.10738 -0.450015,0.53503 -0.560991,0.5349 -0.03422,-1.7e-4 -0.218546,0.11745 -0.409533,0.26112 -0.190971,0.14366 -0.595385,0.42399 -0.898689,0.62296 -0.303295,0.19898 -0.751037,0.51601 -0.994965,0.70453 -0.243928,0.18852 -0.46749,0.34243 -0.496799,0.34201 -0.04946,-6.1e-4 -0.699856,0.48695 -0.929616,0.69703 -0.05782,0.0528 -0.536236,0.10894 -1.110382,0.13027 -1.676057,0.0623 -7.236838,0.0224 -7.416662,-0.0532 z"
       id="path118"
       class="seg5 com2" />
    <path
       style="fill:#000000;stroke:none;stroke-width:0.310296"
       d="m 58.901318,124.76516 c -0.06731,-0.0281 -0.378396,-0.24344 -0.691217,-0.47846 -0.312829,-0.23502 -0.660228,-0.49297 -0.772004,-0.57324 -0.838956,-0.60246 -1.35365,-0.96431 -1.576029,-1.10804 -0.849546,-0.54904 -0.983886,-0.68348 -0.894449,-0.89515 0.02374,-0.0562 0.388594,-0.32762 0.810852,-0.60334 0.422254,-0.27574 1.080097,-0.72838 1.461881,-1.00589 0.381775,-0.27755 0.808785,-0.57107 0.948904,-0.6523 0.140118,-0.0813 0.350375,-0.23533 0.467237,-0.34243 0.116871,-0.10709 0.252122,-0.19416 0.300553,-0.1935 0.04841,6.3e-4 0.131011,-0.049 0.183481,-0.1105 0.07593,-0.089 0.685855,-0.11537 2.98824,-0.12952 5.837433,-0.0359 5.811981,-0.0376 6.294221,0.41588 0.111437,0.10479 0.314101,0.26013 0.450371,0.34522 0.136262,0.0851 0.703687,0.46232 1.260932,0.83829 0.557255,0.37596 1.119873,0.7533 1.250266,0.83854 0.363385,0.23755 0.447072,0.43328 0.245374,0.57384 -0.09121,0.0635 -0.434498,0.30514 -0.76287,0.53683 -0.647419,0.45681 -1.149696,0.80486 -1.885242,1.30642 -0.259593,0.177 -0.752091,0.52489 -1.094448,0.77307 l -0.622455,0.45128 -1.287994,0.0397 c -1.783575,0.055 -6.926316,0.0357 -7.075604,-0.0267 z"
       id="path117"
       class="seg3 com2" />
    <path
       style="fill:#000000;stroke:none;stroke-width:0.310296"
       d="m 34.871407,124.60116 c -0.143501,-0.0636 -0.0964,-3.72891 0.04781,-3.72178 0.05618,0.002 2.318971,0.009 5.028442,0.0132 2.709474,0.005 5.665156,0.0165 6.568191,0.0266 l 1.641885,0.0185 0.04,1.7599 c 0.03212,1.4132 0.01841,1.78092 -0.06963,1.86652 -0.132753,0.1291 -1.268143,0.20372 -1.3375,0.088 -0.03116,-0.0519 -0.101337,-0.0535 -0.197141,-0.004 -0.08677,0.0449 -1.39358,0.0624 -3.136203,0.0421 -1.643096,-0.0191 -4.225174,-0.0372 -5.737955,-0.0404 -1.512781,-0.003 -2.794338,-0.025 -2.847905,-0.0488 z"
       id="path116"
       class="seg2 com4" />
    <path
       style="fill:#000000;stroke:none;stroke-width:0.310296"
       d="m 172.3081,135.29973 c -0.11258,-0.0232 -0.22949,-0.0836 -0.25982,-0.13397 -0.0304,-0.0504 -0.0429,-1.07214 -0.028,-2.27059 0.0335,-2.68089 0.0122,-6.57662 -0.0378,-7.03459 -0.0269,-0.24451 -0.005,-0.35118 0.078,-0.38172 0.20148,-0.0741 5.78959,0.015 5.83634,0.0931 0.0245,0.0408 0.0646,0.32957 0.0891,0.64157 0.0683,0.86617 0.23075,0.82106 -2.87547,0.79862 l -1.62396,-0.0117 0.009,1.00593 0.009,1.00594 1.57249,0.022 c 0.86485,0.0121 1.58964,0.0407 1.61061,0.0636 0.0209,0.0228 0.0596,0.28205 0.0858,0.57594 0.0766,0.8579 0.0974,0.84742 -1.67813,0.84849 -0.81896,3.2e-4 -1.52252,0.0209 -1.56343,0.0454 -0.0409,0.0245 -0.067,0.40499 -0.0577,0.84555 0.0825,3.97234 0.0892,3.69288 -0.0901,3.81477 -0.16737,0.11379 -0.70073,0.14931 -1.07586,0.0715 z"
       id="path115"
       class="seg12 com4" />
    <path
       style="fill:#000000;stroke:none;stroke-width:0.310296"
       d="m 160.03317,135.29377 c -0.09,-0.0234 -0.18809,-0.0671 -0.21801,-0.097 -0.0299,-0.0299 -0.0459,-1.42133 -0.0354,-3.09206 l 0.019,-3.03771 0.69434,0.0104 0.69434,0.0104 0.0348,0.44468 0.0348,0.44468 0.77968,0.0237 c 0.88518,0.0269 1.28829,0.18536 1.67738,0.65898 0.44949,0.54714 0.49552,0.78595 0.52232,2.71056 0.0204,1.4629 0.004,1.79369 -0.0908,1.87041 -0.071,0.0573 -0.34804,0.0806 -0.71797,0.0605 l -0.60243,-0.0328 -0.0171,-1.71125 -0.0172,-1.71124 -0.22755,-0.20116 c -0.31779,-0.28092 -0.77791,-0.28102 -1.0485,-2.8e-4 -0.20007,0.20764 -0.20221,0.2254 -0.22531,1.87817 -0.0129,0.9177 -0.0421,1.68508 -0.0649,1.70529 -0.0678,0.0599 -1.01408,0.11302 -1.19149,0.0669 z"
       id="path114"
       class="seg10 com3" />
    <path
       style="fill:#000000;stroke:none;stroke-width:0.310296"
       d="m 165.53516,135.90639 c -0.0267,-0.14392 -0.0276,-0.43027 -0.002,-0.63636 0.13112,-1.05764 0.33876,-3.36504 0.38427,-4.27005 0.0283,-0.5641 0.0537,-1.03482 0.0565,-1.04607 0.002,-0.0113 0.34292,-0.0158 0.75604,-0.0104 l 0.7511,0.0105 -0.0726,1.04585 c -0.0399,0.57522 -0.10464,1.20243 -0.14391,1.39381 -0.20127,0.98116 0.40343,1.70894 1.04913,1.26264 0.40284,-0.27846 0.47072,-0.54344 0.55871,-2.18182 0.0914,-1.70177 0.004,-1.55681 0.9387,-1.56363 0.71366,-0.005 0.72598,0.0156 0.59504,1.00044 -0.05,0.37589 -0.12061,1.02407 -0.15699,1.44042 -0.0753,0.86182 -0.0171,1.02536 0.47616,1.33988 0.28474,0.18152 0.28888,0.19238 0.28128,0.73648 -0.0121,0.8679 -0.23654,1.01984 -0.95343,0.64557 -0.55199,-0.28817 -0.63704,-0.29763 -0.92995,-0.10346 -0.48898,0.32416 -0.92073,0.37498 -1.86315,0.21928 -0.14246,-0.0236 -0.16794,0.0261 -0.1953,0.38095 -0.0172,0.22441 -0.0712,0.45458 -0.11985,0.51149 -0.0576,0.0677 -0.30902,0.10036 -0.72477,0.0945 l -0.63641,-0.009 z"
       id="path113"
       class="seg10 com4" />
    <path
       style="fill:#000000;stroke:none;stroke-width:0.310296"
       d="m 132.24939,147.83045 c -0.3689,-0.50308 -0.81462,-1.29292 -0.96745,-1.71436 -0.36205,-0.99839 -0.42981,-2.46152 -0.21498,-4.64204 0.11529,-1.1703 0.20706,-2.22416 0.56058,-6.43757 0.0851,-1.01488 0.19547,-2.25112 0.24515,-2.74717 0.10014,-0.99983 0.22135,-2.35486 0.43646,-4.87925 0.20593,-2.41671 0.49328,-3.2554 1.5282,-4.46024 0.23157,-0.26958 0.25497,-0.27704 0.84307,-0.26882 l 0.60489,0.008 1.06336,0.77436 c 0.58485,0.42589 1.12547,0.81173 1.20139,0.85742 0.6621,0.39845 0.99765,0.66571 1.03515,0.82449 0.0243,0.10222 -0.004,0.70043 -0.0618,1.32937 -0.0582,0.62894 -0.15065,1.71559 -0.20556,2.41478 -0.0549,0.6992 -0.11961,1.4742 -0.14378,1.72225 -0.0242,0.24803 -0.0888,1.05999 -0.14361,1.80434 -0.0548,0.74435 -0.12002,1.427 -0.14489,1.51695 -0.0249,0.09 -0.0916,0.86495 -0.1483,1.72219 -0.0567,0.85722 -0.14351,1.90903 -0.19295,2.33734 -0.0495,0.42833 -0.14216,1.48005 -0.20602,2.33717 -0.064,0.85714 -0.13355,1.68749 -0.15486,1.84526 -0.0214,0.15774 -0.0656,0.60049 -0.0985,0.9839 -0.033,0.38339 -0.10222,0.77691 -0.1541,0.8745 -0.0519,0.0977 -0.54405,0.62996 -1.0937,1.18302 -0.54963,0.55308 -1.44574,1.46694 -1.99135,2.03084 -0.5456,0.56386 -1.05564,1.02434 -1.13341,1.02325 -0.0778,-8.7e-4 -0.28608,-0.19929 -0.46292,-0.44043 z"
       id="path112"
       class="seg8 com3" />
    <path
       style="fill:#000000;stroke:none;stroke-width:0.310296"
       d="m 150.15881,148.57901 c -0.0896,-0.0512 -0.18794,-0.13576 -0.21851,-0.18805 -0.0306,-0.0524 -0.28037,-0.37311 -0.55512,-0.71294 -0.27475,-0.33985 -0.64908,-0.80383 -0.83186,-1.03107 -0.18277,-0.22725 -0.53232,-0.6415 -0.7768,-0.92056 -0.45224,-0.5162 -1.09147,-1.28378 -1.26926,-1.52407 -0.11667,-0.1577 -0.1121,-1.05352 0.0122,-2.38908 0.10388,-1.1159 0.2981,-3.39639 0.33874,-3.97745 0.0871,-1.24352 0.26445,-3.27344 0.28974,-3.31443 0.0161,-0.0261 0.0633,-0.58278 0.10472,-1.237 0.0415,-0.65422 0.0889,-1.31862 0.10539,-1.47646 0.0165,-0.15782 0.10181,-1.11728 0.18962,-2.13213 0.0878,-1.01484 0.21983,-2.45398 0.29336,-3.19807 l 0.13372,-1.35289 0.31546,-0.2661 c 0.1735,-0.14635 0.44577,-0.33787 0.60506,-0.42563 0.15928,-0.0878 0.51356,-0.32169 0.78728,-0.51989 0.27373,-0.19821 0.797,-0.55901 1.16284,-0.8018 l 0.66517,-0.44142 0.7882,0.0111 c 0.53484,0.007 0.81245,0.0444 0.86366,0.11472 0.0923,0.12679 0.42945,0.99455 0.65779,1.69284 0.14801,0.45266 0.16671,0.70476 0.15235,2.05481 -0.009,0.84634 -0.0427,1.72319 -0.0749,1.94854 -0.0597,0.41833 -0.21676,2.10047 -0.30611,3.28001 -0.0274,0.36088 -0.0927,1.09892 -0.14534,1.6401 -0.0526,0.54116 -0.14071,1.64215 -0.19579,2.44663 -0.055,0.80448 -0.11952,1.49307 -0.14318,1.53017 -0.0236,0.0371 -0.0913,0.81832 -0.1504,1.73599 -0.0982,1.52538 -0.13076,1.91803 -0.24054,2.89824 -0.0202,0.18035 -0.0819,0.88151 -0.13733,1.55812 -0.14459,1.76834 -0.32601,2.46641 -0.88227,3.39511 -0.17435,0.29108 -0.51218,0.74821 -0.75072,1.01584 -0.64585,0.72456 -0.60255,0.6923 -0.78721,0.58689 z"
       id="path111"
       class="seg9 com3" />
    <path
       style="fill:#000000;stroke:none;stroke-width:0.310296"
       d="m 105.55153,147.92266 c -0.45742,-0.53455 -1.10764,-1.9143 -1.2591,-2.67179 -0.16923,-0.84633 -0.17304,-1.68186 -0.0152,-3.33028 0.19027,-1.98741 0.43677,-4.80109 0.49211,-5.61746 0.026,-0.38349 0.11008,-1.34296 0.18686,-2.13218 0.0768,-0.78919 0.20745,-2.28377 0.29046,-3.32127 0.18667,-2.33325 0.35177,-4.18575 0.402,-4.51026 0.0209,-0.13519 0.0617,-0.43019 0.0904,-0.65559 0.0707,-0.55322 0.5716,-1.68731 1.01109,-2.28919 0.47075,-0.64467 0.50937,-0.67089 1.03644,-0.70335 0.49697,-0.0306 0.97785,0.11905 1.30546,0.40626 0.11152,0.0978 0.47728,0.3643 0.81278,0.59227 0.33551,0.22798 0.62818,0.43658 0.65038,0.46359 0.0222,0.027 0.30408,0.21639 0.6264,0.42085 0.60524,0.38395 0.74084,0.5568 0.71251,0.90824 -0.009,0.11278 -0.0682,0.75854 -0.13122,1.43504 -0.11272,1.20874 -0.34357,3.92045 -0.4643,5.45363 -0.0337,0.42853 -0.0781,0.92672 -0.0985,1.10707 -0.0204,0.18035 -0.084,0.97385 -0.14109,1.76332 -0.0571,0.78948 -0.14616,1.80432 -0.19784,2.25519 -0.0517,0.45086 -0.13671,1.41032 -0.18898,2.13214 -0.0523,0.72181 -0.14152,1.79206 -0.1983,2.37833 -0.0568,0.58627 -0.12253,1.26388 -0.14605,1.50581 -0.0236,0.24192 -0.0984,0.51798 -0.16634,0.61347 -0.25438,0.35746 -4.11195,4.18216 -4.21663,4.18069 -0.0358,-3e-4 -0.21269,-0.17354 -0.39325,-0.38453 z"
       id="path110"
       class="seg6 com3" />
    <path
       style="fill:#000000;stroke:none;stroke-width:0.310296"
       d="m 123.40356,148.59629 c -0.0829,-0.0654 -0.4282,-0.47061 -0.76742,-0.90046 -1.20472,-1.5266 -1.59166,-2.00217 -2.12854,-2.61606 -0.29888,-0.34176 -0.61786,-0.78078 -0.70883,-0.97561 -0.17114,-0.36651 -0.1709,-0.33427 -0.014,-1.92571 0.02,-0.20294 0.10508,-1.21783 0.18907,-2.25531 0.0841,-1.03748 0.1756,-2.08923 0.20358,-2.3372 0.028,-0.24798 0.0972,-1.07835 0.15383,-1.84526 0.0566,-0.76692 0.11793,-1.56044 0.13621,-1.76339 0.0182,-0.20297 0.0634,-0.7935 0.10056,-1.31232 0.0721,-1.01297 0.20433,-2.37926 0.34486,-3.56683 0.0481,-0.40577 0.11322,-1.14382 0.14493,-1.64011 0.0862,-1.35049 0.16772,-2.11109 0.24804,-2.3157 0.0396,-0.10087 0.26873,-0.3115 0.5092,-0.4681 0.65439,-0.42617 0.96558,-0.6391 1.52177,-1.04119 0.27739,-0.20054 0.53384,-0.3642 0.5699,-0.3637 0.0361,3e-4 0.21045,-0.12638 0.38759,-0.28196 0.20036,-0.176 0.40725,-0.28251 0.54758,-0.28188 0.12406,6.3e-4 0.5084,-0.0162 0.85411,-0.0371 0.7121,-0.0432 0.62585,-0.11341 1.08141,0.88152 0.45011,0.983 0.47929,1.20646 0.43578,3.33729 -0.0221,1.08349 -0.0874,2.3573 -0.14484,2.83065 -0.0574,0.47337 -0.12775,1.22983 -0.15603,1.68102 -0.0282,0.45118 -0.11446,1.48455 -0.19156,2.29631 -0.077,0.81179 -0.18436,2.02958 -0.23836,2.7062 -0.054,0.67663 -0.14217,1.70995 -0.19597,2.29627 -0.0538,0.58632 -0.14691,1.60108 -0.20692,2.25505 -0.06,0.65397 -0.14383,1.74276 -0.18624,2.41955 -0.0425,0.67679 -0.11677,1.30387 -0.16525,1.3935 -0.0484,0.0896 -0.11566,0.3357 -0.14929,0.54677 -0.0725,0.45465 -0.32964,1.18206 -0.46428,1.31298 -0.0525,0.0509 -0.0958,0.12404 -0.0963,0.16233 -0.002,0.1139 -0.55108,0.89346 -0.85093,1.20723 -0.15315,0.16025 -0.3537,0.38783 -0.44567,0.50573 -0.1499,0.19219 -0.1828,0.20207 -0.31786,0.0955 z"
       id="path109"
       class="seg7 com3" />
    <path
       style="fill:#000000;stroke:none;stroke-width:0.310296"
       d="m 78.723132,147.75551 c -0.444023,-0.54679 -0.967102,-1.57153 -1.189706,-2.33069 -0.177396,-0.60501 -0.15143,-2.47659 0.06069,-4.36258 0.08063,-0.71737 0.150715,-1.54773 0.155756,-1.84523 0.0052,-0.2975 0.07183,-1.02035 0.148435,-1.60635 0.07662,-0.586 0.184022,-1.74836 0.238714,-2.58303 0.05468,-0.83468 0.139744,-1.73872 0.18901,-2.00899 0.04928,-0.27025 0.0947,-0.82385 0.100984,-1.23019 0.0061,-0.40634 0.05268,-1.05229 0.103142,-1.43543 0.05041,-0.38315 0.139527,-1.3056 0.197963,-2.0499 0.05843,-0.74432 0.122347,-1.51933 0.142016,-1.72227 0.07506,-0.77439 0.293613,-1.69728 0.509303,-2.15062 0.123357,-0.25929 0.224555,-0.49076 0.224885,-0.51438 8.71e-4,-0.0848 0.400365,-0.61169 0.709608,-0.93669 l 0.315199,-0.33126 0.624875,0.0395 c 0.573128,0.0362 0.661917,0.0667 1.071878,0.36885 1.045555,0.77042 2.311607,1.64977 2.592769,1.80085 l 0.194339,0.10441 -0.0721,1.24233 c -0.03962,0.68328 -0.114693,1.68509 -0.166781,2.22627 -0.05207,0.54119 -0.135817,1.53761 -0.186086,2.21429 -0.05024,0.67668 -0.16079,1.9868 -0.245599,2.91138 -0.08481,0.92457 -0.221124,2.47448 -0.302896,3.44425 -0.08176,0.96977 -0.194069,2.26139 -0.249553,2.87026 -0.05546,0.60888 -0.122939,1.45774 -0.149871,1.88637 -0.0269,0.42863 -0.0761,0.98217 -0.109207,1.23008 -0.03309,0.24792 -0.06922,0.54299 -0.0802,0.65574 -0.01097,0.11274 -0.02456,0.24717 -0.03013,0.29874 -0.0115,0.10734 -0.39178,0.49651 -2.659476,2.72214 -0.895971,0.87937 -1.651214,1.59854 -1.678294,1.59815 -0.02708,-3.1e-4 -0.233888,-0.22806 -0.459566,-0.50597 z"
       id="path108"
       class="seg4 com3" />
    <path
       style="fill:#000000;stroke:none;stroke-width:0.310296"
       d="m 95.977916,147.82262 c -0.347468,-0.46569 -0.854673,-1.11013 -1.127126,-1.43211 -0.272445,-0.32197 -0.565901,-0.67506 -0.652104,-0.78466 -0.0862,-0.1096 -0.211319,-0.25985 -0.278027,-0.3339 -0.0667,-0.074 -0.311801,-0.38197 -0.544663,-0.68429 l -0.42337,-0.54969 0.01016,-0.64508 c 0.0052,-0.35479 0.04963,-0.95857 0.09841,-1.34175 0.04885,-0.38316 0.113701,-1.06579 0.144203,-1.51696 0.07131,-1.05462 0.256163,-3.20811 0.302738,-3.52637 0.03761,-0.25707 0.08877,-0.8661 0.199913,-2.37829 0.0842,-1.14642 0.09944,-1.33377 0.172937,-2.13238 0.03317,-0.36081 0.130959,-1.5233 0.217223,-2.58334 0.266959,-3.28052 0.423693,-4.76965 0.513021,-4.87427 0.04719,-0.0553 0.626452,-0.45443 1.287255,-0.88698 0.660785,-0.43256 1.29718,-0.87275 1.414199,-0.97822 0.117018,-0.10543 0.243284,-0.19129 0.280578,-0.19076 0.03727,3e-4 0.10986,-0.0483 0.161252,-0.1085 0.09883,-0.1157 1.549947,-0.23143 1.774719,-0.14155 0.0667,0.0267 0.169463,0.14718 0.228307,0.26779 0.05895,0.1206 0.145927,0.29371 0.193487,0.38471 0.123562,0.23638 0.303772,0.74948 0.459432,1.30805 0.11616,0.41692 0.12475,0.7349 0.0633,2.34094 -0.0391,1.02217 -0.0925,1.96904 -0.11869,2.10415 -0.0262,0.1351 -0.0974,0.91001 -0.15837,1.72203 -0.061,0.81201 -0.12751,1.58699 -0.14791,1.72217 -0.0204,0.1352 -0.08481,0.89174 -0.14305,1.6812 -0.05833,0.78947 -0.151351,1.85967 -0.206852,2.37822 -0.05546,0.51855 -0.137525,1.45958 -0.182272,2.09118 -0.181244,2.55748 -0.477173,5.64681 -0.624441,6.51877 -0.05146,0.30458 -0.335207,1.11558 -0.428829,1.22562 -0.05695,0.067 -0.201541,0.32355 -0.321267,0.57026 -0.225347,0.46429 -1.247541,1.62469 -1.42895,1.62216 -0.05669,-6.2e-4 -0.387295,-0.38246 -0.734754,-0.84815 z"
       id="path107"
       class="seg5 com3" />
    <path
       style="fill:#000000;stroke:none;stroke-width:0.310296"
       d="m 52.145916,148.12821 c -0.523838,-0.42403 -1.234049,-1.77865 -1.49259,-2.8469 -0.188428,-0.77854 -0.189126,-1.04952 -0.0075,-2.92118 0.0765,-0.78854 0.16022,-1.76594 0.186041,-2.17202 0.06125,-0.96339 0.246958,-3.18612 0.370016,-4.42861 0.0536,-0.54115 0.138217,-1.59299 0.18805,-2.33743 0.04983,-0.74441 0.132733,-1.70391 0.184214,-2.1322 0.05148,-0.42828 0.122815,-1.22168 0.158511,-1.76308 0.17313,-2.62604 0.449672,-4.46533 0.752439,-5.00457 0.04831,-0.0861 0.170645,-0.33184 0.271857,-0.54623 0.101202,-0.2144 0.313951,-0.54397 0.472759,-0.73236 0.158809,-0.1884 0.342424,-0.40645 0.408033,-0.48457 0.09206,-0.10961 0.244907,-0.14026 0.669726,-0.13432 0.544885,0.007 0.558514,0.0134 1.352045,0.57313 0.440883,0.31097 0.86372,0.60324 0.939639,0.64946 0.07593,0.0462 0.156167,0.10766 0.178345,0.13655 0.02221,0.0288 0.186868,0.14202 0.365996,0.25142 0.887926,0.54238 1.107466,0.71442 1.152595,0.9032 0.02638,0.11041 -0.0018,0.53491 -0.06209,0.94338 -0.06061,0.40844 -0.155208,1.49349 -0.210352,2.41122 -0.05512,0.91773 -0.117209,1.69518 -0.137925,1.72768 -0.03587,0.0563 -0.166607,1.47754 -0.298611,3.24689 -0.03369,0.45112 -0.09983,1.11428 -0.147067,1.47372 -0.04719,0.35942 -0.09131,0.98693 -0.09796,1.39444 -0.0069,0.40752 -0.07175,1.18351 -0.144707,1.72439 -0.07297,0.54088 -0.138448,1.33435 -0.145553,1.76325 -0.0069,0.42892 -0.103587,1.53602 -0.214419,2.46023 -0.232147,1.93587 -0.06731,1.60862 -1.581066,3.13902 -0.484645,0.48996 -1.237969,1.25534 -1.674049,1.70084 -0.436082,0.44549 -0.891305,0.8913 -1.011603,0.99069 l -0.218731,0.18071 z"
       id="path106"
       class="seg2 com3" />
    <path
       style="fill:#000000;stroke:none;stroke-width:0.310296"
       d="m 69.607583,148.2713 c -0.178823,-0.19442 -0.476999,-0.56662 -0.662605,-0.8271 -0.185615,-0.26049 -0.601114,-0.76965 -0.923339,-1.13145 -0.322216,-0.36182 -0.876545,-1.00838 -1.231824,-1.43681 l -0.645965,-0.77894 0.01006,-0.69777 c 0.0115,-0.80139 0.112465,-2.16207 0.304157,-4.1011 0.07357,-0.7441 0.161227,-1.75895 0.194802,-2.25521 0.03361,-0.49629 0.07601,-1.01298 0.09429,-1.14819 0.04806,-0.35528 0.217075,-2.18509 0.39393,-4.26406 0.08438,-0.99232 0.196421,-2.247 0.248909,-2.78816 0.05251,-0.54118 0.139945,-1.60612 0.194339,-2.36656 0.05443,-0.76042 0.119388,-1.41471 0.144413,-1.45397 0.04224,-0.0661 0.876196,-0.62708 1.484467,-0.9983 0.144674,-0.0882 0.37245,-0.24342 0.50616,-0.3447 1.411274,-1.06907 1.403324,-1.06548 2.330868,-1.05251 l 0.808576,0.0112 0.287377,0.60224 c 0.255153,0.53471 0.447038,1.14742 0.599556,1.91443 0.07889,0.39693 0.03483,1.86227 -0.101203,3.36499 -0.372301,4.11191 -0.4815,5.34658 -0.656362,7.42151 -0.08176,0.96977 -0.193451,2.22225 -0.248291,2.7833 -0.05485,0.56104 -0.142051,1.68674 -0.193835,2.50155 -0.184918,2.91004 -0.51269,4.61857 -1.051746,5.48233 -0.0869,0.13922 -0.184282,0.33583 -0.216439,0.43691 -0.03213,0.10107 -0.215298,0.34515 -0.406956,0.54239 -0.191667,0.19722 -0.453489,0.4892 -0.581836,0.64885 -0.128338,0.15964 -0.261021,0.28988 -0.294849,0.2894 -0.03379,-3.1e-4 -0.20781,-0.15994 -0.386634,-0.35436 z"
       id="path105"
       class="seg3 com3" />
    <path
       style="fill:#000000;stroke:none;stroke-width:0.310296"
       d="m 171.76866,150.00087 c -0.0884,-0.10974 -0.0669,-0.26747 0.13222,-0.96291 0.13094,-0.45742 0.27056,-0.97901 0.31029,-1.1591 0.0655,-0.29748 0.3832,-1.56712 0.62423,-2.49554 0.17812,-0.686 0.67532,-2.70307 0.77653,-3.15026 0.21796,-0.96288 0.44791,-1.80803 0.50794,-1.86682 0.10849,-0.10625 1.30926,-0.10997 1.39101,-0.004 0.0393,0.0508 0.12952,0.3333 0.20053,0.62783 0.0709,0.29452 0.2175,0.86927 0.32553,1.27721 0.108,0.40794 0.21603,0.83435 0.24001,0.94759 0.0239,0.11322 0.12976,0.53961 0.235,0.94752 0.10525,0.4079 0.29162,1.14946 0.41414,1.64792 0.31727,1.29074 0.4414,1.76815 0.74387,2.86077 0.27154,0.98095 0.31927,1.33759 0.1894,1.41536 -0.0397,0.0237 -0.34244,0.045 -0.67272,0.0472 -0.52806,0.003 -0.61788,-0.0181 -0.74434,-0.17883 -0.0791,-0.10056 -0.16273,-0.31897 -0.18583,-0.48541 -0.0231,-0.16647 -0.0913,-0.48806 -0.15155,-0.7147 -0.0602,-0.22664 -0.13197,-0.5867 -0.1594,-0.80014 -0.0275,-0.21342 -0.0967,-0.42809 -0.15406,-0.47703 -0.0641,-0.0547 -0.4601,-0.085 -1.02835,-0.0787 l -0.92415,0.0104 -0.16285,0.77774 c -0.30765,1.46923 -0.38143,1.74761 -0.49163,1.85476 -0.16663,0.16204 -1.27806,0.13016 -1.41582,-0.0406 z m 3.6399,-4.09779 c 0.0316,-0.0495 8.7e-4,-0.28093 -0.0669,-0.51411 -0.0683,-0.23316 -0.1865,-0.6742 -0.26244,-0.98008 -0.14474,-0.58285 -0.30426,-0.71729 -0.39629,-0.33397 -0.0298,0.12377 -0.10588,0.40905 -0.16926,0.63396 -0.27641,0.98077 -0.30497,1.11187 -0.25901,1.18862 0.0672,0.11235 1.08265,0.11726 1.15385,0.006 z"
       id="path104"
       class="seg13 com4" />
    <path
       style="fill:#000000;stroke:none;stroke-width:0.310296"
       d="m 168.92447,150.09008 c -0.19505,-0.0818 -0.33943,-0.5112 -0.68658,-2.04202 -0.10543,-0.46493 -0.22643,-0.96542 -0.26887,-1.1122 -0.081,-0.27996 -0.29887,-1.13342 -0.52042,-2.03837 -0.14542,-0.59398 -0.24574,-0.97943 -0.49333,-1.89537 -0.44076,-1.63054 -0.63975,-2.49684 -0.59771,-2.60198 0.0349,-0.0874 0.22403,-0.11276 0.78195,-0.10499 0.8209,0.0115 0.73878,-0.0568 0.90294,0.7516 0.0506,0.24909 0.13848,0.60133 0.19536,0.78275 0.14768,0.47117 0.39866,1.5086 0.45841,1.89488 0.028,0.18102 0.0824,0.44041 0.12074,0.57643 0.0384,0.13601 0.16442,0.65504 0.28003,1.1534 0.11561,0.49837 0.24705,0.95555 0.29209,1.01595 0.12229,0.16396 0.28805,-0.19292 0.44013,-0.94761 0.17872,-0.88679 0.43208,-1.9741 0.78582,-3.37244 0.0625,-0.2475 0.17782,-0.72622 0.25602,-1.06382 0.0782,-0.33759 0.18693,-0.6565 0.24162,-0.70868 0.0546,-0.0523 0.3951,-0.10149 0.75649,-0.10959 l 0.65706,-0.0147 -0.0293,0.4482 c -0.0161,0.24649 -0.0714,0.5726 -0.12274,0.72466 -0.12116,0.35854 -0.32247,1.16789 -0.41961,1.68692 -0.0421,0.2252 -0.12385,0.57506 -0.18159,0.77748 -0.31745,1.11288 -0.41872,1.48827 -0.55175,2.04495 -0.0807,0.33758 -0.19951,0.81624 -0.26412,1.06371 -0.0646,0.24748 -0.15911,0.65258 -0.21003,0.90024 -0.2347,1.14197 -0.51904,2.15003 -0.62475,2.21489 -0.14791,0.0908 -0.96276,0.0743 -1.19785,-0.0242 z"
       id="path103"
       class="seg13 com3" />
    <path
       style="fill:#000000;stroke:none;stroke-width:0.310296"
       d="m 159.94861,150.15135 c -0.15777,-0.0206 -0.31017,-0.0628 -0.33869,-0.0939 -0.0285,-0.0311 -0.0457,-1.44192 -0.0384,-3.13527 l 0.0136,-3.07883 0.48948,-0.0183 c 0.68242,-0.0255 0.84181,0.0313 0.90126,0.32132 0.0514,0.25117 0.14921,0.30711 0.57102,0.32689 0.1354,0.006 0.43562,0.0772 0.66717,0.15747 0.40997,0.14211 0.43232,0.14142 0.85292,-0.0264 0.53948,-0.2154 1.02145,-0.21229 1.56331,0.0104 0.43264,0.17756 0.63357,0.36159 0.85671,0.78468 0.22821,0.43268 0.26963,0.725 0.29217,2.06156 0.0121,0.72272 0.0328,1.56144 0.0455,1.86382 0.0329,0.77023 -0.0261,0.82779 -0.82618,0.80728 -0.42804,-0.011 -0.66524,-0.052 -0.7088,-0.12307 -0.036,-0.0586 -0.0523,-0.93232 -0.0362,-1.94159 0.0258,-1.62166 0.0131,-1.85335 -0.10938,-1.99262 -0.18147,-0.20625 -0.3995,-0.20275 -0.61821,0.0104 -0.17174,0.16702 -0.17651,0.22425 -0.17263,2.0708 l 0.004,1.89903 -0.30174,0.0701 c -0.18007,0.0419 -0.47797,0.0377 -0.73881,-0.0104 l -0.43709,-0.0804 0.0122,-1.91378 c 0.008,-1.34396 -0.0166,-1.94938 -0.0843,-2.03333 -0.12628,-0.15656 -0.60238,-0.16039 -0.73428,-0.006 -0.0777,0.091 -0.10243,0.59052 -0.0996,2.00602 0.002,1.19065 -0.0269,1.9126 -0.0794,1.96009 -0.10942,0.0989 -0.58624,0.1518 -0.9457,0.10483 z"
       id="path102"
       class="seg11 com4" />
    <path
       style="fill:#000000;stroke:none;stroke-width:0.310296"
       d="m 136.09827,150.02603 c -0.65631,-0.11554 -1.61466,-0.45614 -2.16508,-0.76949 -0.87064,-0.49564 -0.91514,-0.64559 -0.33325,-1.12284 0.39907,-0.32731 1.41121,-1.31067 3.2821,-3.18879 l 1.02593,-1.02989 3.85902,-3e-4 3.85904,-3.2e-4 0.20111,0.29765 c 0.33145,0.49059 1.82412,2.26372 2.92585,3.47562 0.5681,0.62489 1.03156,1.1856 1.0299,1.246 -0.002,0.10201 -0.7494,0.63245 -0.88904,0.63162 -0.0345,-2e-4 -0.17421,0.0585 -0.31069,0.13033 -0.13647,0.072 -0.39632,0.15826 -0.57742,0.19195 -0.18111,0.0337 -0.50447,0.0966 -0.71856,0.13983 -0.72857,0.14709 -10.35248,0.14616 -11.18891,-8.8e-4 z"
       id="path101"
       class="seg9 com4" />
    <path
       style="fill:#000000;stroke:none;stroke-width:0.310296"
       d="m 109.61798,150.08066 c -0.96346,-0.145 -1.2713,-0.24827 -2.36999,-0.79504 -0.87578,-0.43583 -1.01794,-0.66384 -0.58862,-0.94407 0.26955,-0.17594 2.31305,-2.14467 3.56538,-3.43493 l 0.91562,-0.94336 3.48973,-0.0128 c 1.91936,-0.007 3.65445,-0.007 3.85577,-6.1e-4 0.3838,0.0127 0.44778,0.0641 0.97762,0.78336 0.11079,0.15041 0.50674,0.61094 0.87986,1.02339 0.37313,0.41245 0.73661,0.84248 0.80772,0.95563 0.13288,0.21144 0.66452,0.81779 1.48567,1.69442 0.25687,0.27424 0.45366,0.53698 0.43729,0.58387 -0.0423,0.12131 -0.68273,0.47117 -1.21614,0.66439 -1.36529,0.49454 -1.10545,0.48089 -9.53143,0.50089 -1.19675,0.003 -2.41557,-0.031 -2.70848,-0.075 z"
       id="path100"
       class="seg7 com4" />
    <path
       style="fill:#000000;stroke:none;stroke-width:0.310296"
       d="m 82.769579,150.03744 c -0.396264,-0.039 -0.876301,-0.16341 -1.34986,-0.35021 -0.778039,-0.30689 -1.662708,-0.80548 -1.723765,-0.9715 -0.02011,-0.0546 0.817928,-0.93242 1.862264,-1.95063 1.044345,-1.01823 2.112234,-2.07925 2.373107,-2.35784 l 0.474299,-0.50654 1.133683,0.0134 c 0.623527,0.007 2.354727,0.009 3.847101,0.003 l 2.713435,-0.0104 0.23664,0.3204 c 0.130158,0.17624 0.419069,0.53195 0.642048,0.7905 0.222969,0.25856 0.49598,0.59819 0.606686,0.75473 0.179737,0.25416 0.874229,1.04454 2.283195,2.59848 0.255727,0.28203 0.464443,0.54872 0.463833,0.59263 -8.71e-4,0.0856 -0.706038,0.59424 -0.821315,0.59262 -0.03805,-6.2e-4 -0.231937,0.0676 -0.43077,0.15123 -0.198842,0.0837 -0.750454,0.22154 -1.225807,0.3063 -0.792632,0.14136 -1.262404,0.15118 -5.667046,0.1186 -2.641522,-0.0195 -5.079499,-0.0627 -5.41772,-0.0959 z"
       id="path99"
       class="seg5 com4" />
    <path
       style="fill:#000000;stroke:none;stroke-width:0.310296"
       d="m 56.330839,150.05714 c -0.754917,-0.0851 -1.530062,-0.23493 -1.708477,-0.33022 -0.07333,-0.0392 -0.414309,-0.19282 -0.757735,-0.34141 -0.343426,-0.14861 -0.727888,-0.38125 -0.854353,-0.51701 l -0.229937,-0.24682 0.542018,-0.50076 c 0.298116,-0.27543 0.747024,-0.68847 0.997575,-0.91788 0.452097,-0.41392 2.231756,-2.21667 2.871486,-2.90872 l 0.333475,-0.36074 1.888639,-0.0129 c 1.038755,-0.007 2.7782,-0.0219 3.865438,-0.0329 l 1.976792,-0.02 0.316896,0.39981 c 0.174295,0.21989 0.480516,0.589 0.680499,0.82025 0.199982,0.23122 0.654263,0.77313 1.009506,1.20424 0.355235,0.43109 1.004238,1.16423 1.442211,1.62918 0.50063,0.53149 0.785144,0.89705 0.766249,0.98452 -0.02647,0.1224 -0.638111,0.52864 -0.981461,0.65183 -0.557132,0.1999 -0.769104,0.26333 -1.243203,0.37199 -0.773946,0.17734 -1.279261,0.19647 -5.045854,0.19109 -1.851475,-0.003 -3.79126,-0.002 -4.310629,3.2e-4 -0.519368,0.003 -1.220983,-0.0258 -1.559135,-0.0641 z"
       id="path98"
       class="seg3 com4" />
    <path
       style="fill:#000000;stroke:none;stroke-width:0.310296"
       d="m 127.77148,151.31221 c -0.41602,-0.058 -0.55943,-0.14038 -1.1019,-0.63285 -0.3832,-0.34789 -0.5236,-0.60712 -0.63056,-1.16424 -0.18993,-0.98911 0.19783,-1.8817 1.02744,-2.36505 0.41442,-0.24146 0.51308,-0.26401 1.1195,-0.25585 0.55779,0.007 0.72941,0.0442 1.06423,0.22729 0.55226,0.30204 0.65167,0.40869 0.93314,1.00119 0.22153,0.46633 0.24231,0.57925 0.20707,1.12529 -0.0323,0.50013 -0.0838,0.67693 -0.29267,1.00447 -0.51952,0.81462 -1.35489,1.19518 -2.32625,1.05975 z"
       id="path97"
       class="seg8 com4" />
    <path
       style="fill:#000000;stroke:none;stroke-width:0.310296"
       d="m 100.69356,151.22462 c -0.63389,-0.27356 -1.18807,-0.8283 -1.328598,-1.32997 -0.366398,-1.30799 0.192703,-2.49659 1.351978,-2.8742 0.38628,-0.12581 1.18795,-0.10896 1.57854,0.0333 0.49469,0.18005 1.07897,0.83293 1.26664,1.41539 0.19437,0.60329 0.19484,0.69806 0.006,1.30221 -0.20228,0.64803 -0.75271,1.21833 -1.43149,1.48315 -0.61833,0.24124 -0.82518,0.23697 -1.44334,-0.0298 z"
       id="path96"
       class="seg6 com4" />
    <path
       style="fill:#000000;stroke:none;stroke-width:0.310296"
       d="m 73.780818,151.10554 c -0.502825,-0.27643 -0.844311,-0.60037 -1.091496,-1.03542 -0.17965,-0.31617 -0.203639,-0.45252 -0.191745,-1.08975 0.01089,-0.57613 0.04632,-0.77315 0.170282,-0.94258 0.08612,-0.11782 0.216691,-0.30143 0.290051,-0.40803 0.07332,-0.1066 0.315834,-0.31103 0.53883,-0.45429 0.385911,-0.24792 0.443083,-0.25995 1.186527,-0.24955 0.716582,0.0104 0.813801,0.0312 1.177281,0.25569 0.468753,0.28959 0.872618,0.89298 1.00962,1.50841 0.164596,0.73939 -0.223092,1.718 -0.862248,2.17652 -0.692044,0.49648 -1.584568,0.59226 -2.227102,0.239 z"
       id="path95"
       class="seg4 com4" />
  </g>
</svg>
